<svg id="Accessibility" xmlns="http://www.w3.org/2000/svg" xmlns:xlink="http://www.w3.org/1999/xlink" width="65.5" height="65.5" viewBox="0 0 65.5 65.5">
  <defs>
    <clipPath id="clip-path">
      <rect id="Rectangle_35" data-name="Rectangle 35" width="65.5" height="65.5" fill="none"/>
    </clipPath>
  </defs>
  <g id="Group_32" data-name="Group 32" clip-path="url(#clip-path)">
    <path id="Path_79" data-name="Path 79" d="M14.942,51.074a5.1,5.1,0,0,1,1.606-3.813c1.7-1.7,3.408-3.4,5.1-5.113a8.511,8.511,0,0,0-.013-12.462c-1.669-1.692-3.36-3.361-5.03-5.05a5.416,5.416,0,1,1,7.651-7.662c1.686,1.674,3.354,3.366,5.041,5.038a8.465,8.465,0,0,0,12.456.01c1.707-1.7,3.4-3.408,5.107-5.1a5.415,5.415,0,1,1,7.673,7.641c-1.71,1.736-3.447,3.448-5.161,5.181a8.49,8.49,0,0,0-.048,12.323c1.705,1.741,3.447,3.446,5.16,5.18a5.414,5.414,0,1,1-7.638,7.673c-1.714-1.689-3.4-3.409-5.111-5.1a8.461,8.461,0,0,0-12.385-.025c-1.761,1.73-3.477,3.506-5.243,5.23a5.249,5.249,0,0,1-5.991,1.057A5.2,5.2,0,0,1,14.942,51.074Z" transform="translate(-3.074 -3.149)" fill="none" stroke="#6d8c30" stroke-linecap="round" stroke-linejoin="round" stroke-width="2.5"/>
    <path id="Path_80" data-name="Path 80" d="M46.183,7.915A6.666,6.666,0,1,1,39.518,1.25,6.665,6.665,0,0,1,46.183,7.915Z" transform="translate(-6.77 -0.258)" fill="none" stroke="#6d8c30" stroke-linecap="round" stroke-linejoin="round" stroke-width="2.5"/>
    <path id="Path_81" data-name="Path 81" d="M46.188,71.125a6.666,6.666,0,1,1-6.665-6.665A6.665,6.665,0,0,1,46.188,71.125Z" transform="translate(-6.771 -13.283)" fill="none" stroke="#6d8c30" stroke-linecap="round" stroke-linejoin="round" stroke-width="2.5"/>
    <path id="Path_82" data-name="Path 82" d="M7.915,31.869A6.666,6.666,0,1,1,1.25,38.534,6.665,6.665,0,0,1,7.915,31.869Z" transform="translate(-0.258 -6.567)" fill="none" stroke="#6d8c30" stroke-linecap="round" stroke-linejoin="round" stroke-width="2.5"/>
    <path id="Path_83" data-name="Path 83" d="M71.125,31.865A6.666,6.666,0,1,1,64.46,38.53,6.665,6.665,0,0,1,71.125,31.865Z" transform="translate(-13.283 -6.566)" fill="none" stroke="#6d8c30" stroke-linecap="round" stroke-linejoin="round" stroke-width="2.5"/>
  </g>
</svg>
