<svg id="Accessibility" xmlns="http://www.w3.org/2000/svg" width="23.6" height="23.6" viewBox="0 0 23.6 23.6">
  <path id="Path_248" data-name="Path 248" d="M4.567,17.056a1.77,1.77,0,0,1,.556-1.321c.589-.589,1.181-1.177,1.765-1.771a2.948,2.948,0,0,0,0-4.316C6.306,9.062,5.72,8.484,5.141,7.9a1.876,1.876,0,1,1,2.65-2.654c.584.58,1.162,1.166,1.746,1.745a2.933,2.933,0,0,0,4.315,0c.591-.588,1.177-1.181,1.769-1.768a1.876,1.876,0,1,1,2.658,2.647c-.593.6-1.194,1.194-1.788,1.794a2.94,2.94,0,0,0-.017,4.268c.591.6,1.194,1.194,1.787,1.8a1.875,1.875,0,1,1-2.645,2.657c-.594-.585-1.177-1.181-1.77-1.766a2.93,2.93,0,0,0-4.29-.009c-.611.6-1.2,1.214-1.817,1.812a1.819,1.819,0,0,1-2.075.366A1.8,1.8,0,0,1,4.567,17.056Z" fill="none" stroke="#8c8c8c" stroke-linecap="round" stroke-linejoin="round" stroke-width="1.6"/>
  <path id="Path_249" data-name="Path 249" d="M14.108,3.109A2.308,2.308,0,1,1,11.8.8,2.309,2.309,0,0,1,14.108,3.109Z" fill="none" stroke="#8c8c8c" stroke-linecap="round" stroke-linejoin="round" stroke-width="1.6"/>
  <path id="Path_250" data-name="Path 250" d="M14.109,20.491A2.309,2.309,0,1,1,11.8,18.182,2.309,2.309,0,0,1,14.109,20.491Z" fill="none" stroke="#8c8c8c" stroke-linecap="round" stroke-linejoin="round" stroke-width="1.6"/>
  <path id="Path_251" data-name="Path 251" d="M3.109,9.492A2.309,2.309,0,1,1,.8,11.8,2.309,2.309,0,0,1,3.109,9.492Z" fill="none" stroke="#8c8c8c" stroke-linecap="round" stroke-linejoin="round" stroke-width="1.6"/>
  <path id="Path_252" data-name="Path 252" d="M20.491,9.491A2.308,2.308,0,1,1,18.182,11.8,2.309,2.309,0,0,1,20.491,9.491Z" fill="none" stroke="#8c8c8c" stroke-linecap="round" stroke-linejoin="round" stroke-width="1.6"/>
</svg>
