<svg xmlns="http://www.w3.org/2000/svg" width="81.113" height="81.236" viewBox="0 0 81.113 81.236"><g id="AI" transform="translate(-49.158 66.38) rotate(-11)"><path id="Path_123" data-name="Path 123" d="M55.58,58.6H25.794a2.924,2.924,0,0,1-2.924-2.924V25.829a2.924,2.924,0,0,1,2.924-2.924H55.58A2.924,2.924,0,0,1,58.5,25.829V55.671A2.924,2.924,0,0,1,55.58,58.6" transform="translate(52.295 -48.92)" fill="#fff"></path><rect id="Rectangle_55" data-name="Rectangle 55" width="35.634" height="35.69" rx="2.924" transform="translate(75.166 -26.016)" fill="none" stroke="#fff" stroke-linecap="round" stroke-linejoin="round" stroke-width="1.5"></rect><line id="Line_89" data-name="Line 89" y2="16.686" transform="translate(92.982 -42.701)" fill="none" stroke="#fff" stroke-linecap="round" stroke-linejoin="round" stroke-width="1.5"></line><path id="Path_124" data-name="Path 124" d="M43.169,3.235A2.482,2.482,0,1,1,40.688.75a2.483,2.483,0,0,1,2.481,2.485" transform="translate(52.295 -48.92)" fill="#cfaeff"></path><path id="Path_125" data-name="Path 125" d="M43.169,3.235A2.482,2.482,0,1,1,40.688.75,2.483,2.483,0,0,1,43.169,3.235Z" transform="translate(52.295 -48.92)" fill="none" stroke="#fff" stroke-linecap="round" stroke-linejoin="round" stroke-width="1.5"></path><line id="Line_90" data-name="Line 90" y2="7.606" transform="translate(102.971 -33.621)" fill="none" stroke="#fff" stroke-linecap="round" stroke-linejoin="round" stroke-width="1.5"></line><path id="Path_126" data-name="Path 126" d="M53.157,12.315a2.482,2.482,0,1,1-2.481-2.484,2.483,2.483,0,0,1,2.481,2.484" transform="translate(52.295 -48.92)" fill="#cfaeff"></path><path id="Path_127" data-name="Path 127" d="M53.157,12.315a2.482,2.482,0,1,1-2.481-2.484A2.483,2.483,0,0,1,53.157,12.315Z" transform="translate(52.295 -48.92)" fill="none" stroke="#fff" stroke-linecap="round" stroke-linejoin="round" stroke-width="1.5"></path><line id="Line_91" data-name="Line 91" y2="7.606" transform="translate(82.994 -33.621)" fill="none" stroke="#fff" stroke-linecap="round" stroke-linejoin="round" stroke-width="1.5"></line><path id="Path_128" data-name="Path 128" d="M28.218,12.315A2.482,2.482,0,1,0,30.7,9.831a2.482,2.482,0,0,0-2.48,2.484" transform="translate(52.295 -48.92)" fill="#cfaeff"></path><path id="Path_129" data-name="Path 129" d="M28.218,12.315A2.482,2.482,0,1,0,30.7,9.831,2.482,2.482,0,0,0,28.218,12.315Z" transform="translate(52.295 -48.92)" fill="none" stroke="#fff" stroke-linecap="round" stroke-linejoin="round" stroke-width="1.5"></path><line id="Line_92" data-name="Line 92" y1="16.686" transform="translate(92.982 9.674)" fill="none" stroke="#fff" stroke-linecap="round" stroke-linejoin="round" stroke-width="1.5"></line><path id="Path_130" data-name="Path 130" d="M38.206,78.265a2.482,2.482,0,1,1,2.481,2.485,2.483,2.483,0,0,1-2.481-2.485" transform="translate(52.295 -48.92)" fill="#cfaeff"></path><path id="Path_131" data-name="Path 131" d="M38.206,78.265a2.482,2.482,0,1,1,2.481,2.485A2.483,2.483,0,0,1,38.206,78.265Z" transform="translate(52.295 -48.92)" fill="none" stroke="#fff" stroke-linecap="round" stroke-linejoin="round" stroke-width="1.5"></path><line id="Line_93" data-name="Line 93" y1="7.606" transform="translate(82.994 9.674)" fill="none" stroke="#fff" stroke-linecap="round" stroke-linejoin="round" stroke-width="1.5"></line><path id="Path_132" data-name="Path 132" d="M28.218,69.184A2.482,2.482,0,1,1,30.7,71.67a2.482,2.482,0,0,1-2.48-2.486" transform="translate(52.295 -48.92)" fill="#cfaeff"></path><path id="Path_133" data-name="Path 133" d="M28.218,69.184A2.482,2.482,0,1,1,30.7,71.67,2.482,2.482,0,0,1,28.218,69.184Z" transform="translate(52.295 -48.92)" fill="none" stroke="#fff" stroke-linecap="round" stroke-linejoin="round" stroke-width="1.5"></path><line id="Line_94" data-name="Line 94" y1="7.606" transform="translate(102.97 9.674)" fill="none" stroke="#fff" stroke-linecap="round" stroke-linejoin="round" stroke-width="1.5"></line><path id="Path_134" data-name="Path 134" d="M53.157,69.184a2.482,2.482,0,1,0-2.481,2.486,2.483,2.483,0,0,0,2.481-2.486" transform="translate(52.295 -48.92)" fill="#cfaeff"></path><path id="Path_135" data-name="Path 135" d="M53.157,69.184a2.482,2.482,0,1,0-2.481,2.486A2.483,2.483,0,0,0,53.157,69.184Z" transform="translate(52.295 -48.92)" fill="none" stroke="#fff" stroke-linecap="round" stroke-linejoin="round" stroke-width="1.5"></path><line id="Line_95" data-name="Line 95" x2="16.66" transform="translate(58.506 -8.17)" fill="none" stroke="#fff" stroke-linecap="round" stroke-linejoin="round" stroke-width="1.5"></line><path id="Path_136" data-name="Path 136" d="M3.231,38.265A2.486,2.486,0,1,1,.75,40.75a2.483,2.483,0,0,1,2.481-2.485" transform="translate(52.295 -48.92)" fill="#b1bfff"></path><path id="Path_137" data-name="Path 137" d="M3.231,38.265A2.486,2.486,0,1,1,.75,40.75,2.483,2.483,0,0,1,3.231,38.265Z" transform="translate(52.295 -48.92)" fill="none" stroke="#fff" stroke-linecap="round" stroke-linejoin="round" stroke-width="1.5"></path><line id="Line_96" data-name="Line 96" x2="7.594" transform="translate(67.572 -18.174)" fill="none" stroke="#fff" stroke-linecap="round" stroke-linejoin="round" stroke-width="1.5"></line><path id="Path_138" data-name="Path 138" d="M12.3,28.261a2.486,2.486,0,1,1-2.481,2.485A2.483,2.483,0,0,1,12.3,28.261" transform="translate(52.295 -48.92)" fill="#b1bfff"></path><path id="Path_139" data-name="Path 139" d="M12.3,28.261a2.486,2.486,0,1,1-2.481,2.485A2.483,2.483,0,0,1,12.3,28.261Z" transform="translate(52.295 -48.92)" fill="none" stroke="#fff" stroke-linecap="round" stroke-linejoin="round" stroke-width="1.5"></path><line id="Line_97" data-name="Line 97" x2="7.594" transform="translate(67.572 1.833)" fill="none" stroke="#fff" stroke-linecap="round" stroke-linejoin="round" stroke-width="1.5"></line><path id="Path_140" data-name="Path 140" d="M12.3,53.239a2.486,2.486,0,1,0-2.481-2.485A2.483,2.483,0,0,0,12.3,53.239" transform="translate(52.295 -48.92)" fill="#b1bfff"></path><path id="Path_141" data-name="Path 141" d="M12.3,53.239a2.486,2.486,0,1,0-2.481-2.485A2.483,2.483,0,0,0,12.3,53.239Z" transform="translate(52.295 -48.92)" fill="none" stroke="#fff" stroke-linecap="round" stroke-linejoin="round" stroke-width="1.5"></path><line id="Line_98" data-name="Line 98" x1="16.66" transform="translate(110.799 -8.17)" fill="none" stroke="#fff" stroke-linecap="round" stroke-linejoin="round" stroke-width="1.5"></line><path id="Path_142" data-name="Path 142" d="M78.143,43.235a2.486,2.486,0,1,1,2.481-2.485,2.483,2.483,0,0,1-2.481,2.485" transform="translate(52.295 -48.92)" fill="#b1bfff"></path><path id="Path_143" data-name="Path 143" d="M78.143,43.235a2.486,2.486,0,1,1,2.481-2.485A2.483,2.483,0,0,1,78.143,43.235Z" transform="translate(52.295 -48.92)" fill="none" stroke="#fff" stroke-linecap="round" stroke-linejoin="round" stroke-width="1.5"></path><line id="Line_99" data-name="Line 99" x1="7.594" transform="translate(110.799 1.833)" fill="none" stroke="#fff" stroke-linecap="round" stroke-linejoin="round" stroke-width="1.5"></line><path id="Path_144" data-name="Path 144" d="M69.077,53.239a2.486,2.486,0,1,1,2.481-2.485,2.483,2.483,0,0,1-2.481,2.485" transform="translate(52.295 -48.92)" fill="#b1bfff"></path><path id="Path_145" data-name="Path 145" d="M69.077,53.239a2.486,2.486,0,1,1,2.481-2.485A2.483,2.483,0,0,1,69.077,53.239Z" transform="translate(52.295 -48.92)" fill="none" stroke="#fff" stroke-linecap="round" stroke-linejoin="round" stroke-width="1.5"></path><line id="Line_100" data-name="Line 100" x1="7.594" transform="translate(110.799 -18.174)" fill="none" stroke="#fff" stroke-linecap="round" stroke-linejoin="round" stroke-width="1.5"></line><path id="Path_146" data-name="Path 146" d="M69.077,28.261a2.486,2.486,0,1,0,2.481,2.485,2.483,2.483,0,0,0-2.481-2.485" transform="translate(52.295 -48.92)" fill="#b1bfff"></path><path id="Path_147" data-name="Path 147" d="M69.077,28.261a2.486,2.486,0,1,0,2.481,2.485A2.483,2.483,0,0,0,69.077,28.261Z" transform="translate(52.295 -48.92)" fill="none" stroke="#fff" stroke-linecap="round" stroke-linejoin="round" stroke-width="1.5"></path><line id="Line_101" data-name="Line 101" y1="17.555" transform="translate(100.746 -16.948)" fill="none" stroke="#a6adff" stroke-linecap="round" stroke-linejoin="round" stroke-width="1.5"></line><path id="Path_148" data-name="Path 148" d="M30.923,49.528,37.34,31.972l6.338,17.555" transform="translate(52.295 -48.92)" fill="none" stroke="#a6adff" stroke-linecap="round" stroke-linejoin="round" stroke-width="1.5"></path><line id="Line_102" data-name="Line 102" x2="7.783" transform="translate(85.72 -6.235)" fill="none" stroke="#a6adff" stroke-linecap="round" stroke-linejoin="round" stroke-width="1.5"></line></g></svg>