<svg id="AI" xmlns="http://www.w3.org/2000/svg" width="23" height="23" viewBox="0 0 23 23">
  <path id="Path_281" data-name="Path 281" d="M5.966,1.6a1.587,1.587,0,1,1-3.173,0,1.587,1.587,0,1,1,3.173,0" fill="#8c8c8c"/>
  <line id="Line_184" data-name="Line 184" y1="4.861" transform="translate(13.881 9.057)" fill="none" stroke="#8c8c8c" stroke-linecap="round" stroke-linejoin="round" stroke-width="1.6"/>
  <path id="Path_282" data-name="Path 282" d="M8.534,13.918l1.757-4.861,1.736,4.861" fill="none" stroke="#8c8c8c" stroke-linecap="round" stroke-linejoin="round" stroke-width="1.6"/>
  <line id="Line_185" data-name="Line 185" x2="2.132" transform="translate(9.219 12.767)" fill="none" stroke="#8c8c8c" stroke-linecap="round" stroke-linejoin="round" stroke-width="1.6"/>
  <path id="Path_283" data-name="Path 283" d="M8.747,5.625V1.6H5.3" fill="none" stroke="#8c8c8c" stroke-linecap="round" stroke-linejoin="round" stroke-width="1.6"/>
  <rect id="Rectangle_98" data-name="Rectangle 98" width="11.763" height="11.763" rx="0.964" transform="translate(5.619 5.612)" fill="none" stroke="#8c8c8c" stroke-linecap="round" stroke-linejoin="round" stroke-width="1.6"/>
  <path id="Path_284" data-name="Path 284" d="M17.034,1.6a1.586,1.586,0,1,0,3.172,0,1.586,1.586,0,1,0-3.172,0" fill="#8c8c8c"/>
  <path id="Path_285" data-name="Path 285" d="M14.253,5.625V1.6H17.7" fill="none" stroke="#8c8c8c" stroke-linecap="round" stroke-linejoin="round" stroke-width="1.6"/>
  <path id="Path_286" data-name="Path 286" d="M5.966,21.4A1.587,1.587,0,1,0,4.38,23a1.595,1.595,0,0,0,1.586-1.6" fill="#8c8c8c"/>
  <path id="Path_287" data-name="Path 287" d="M8.747,17.375V21.4H5.3" fill="none" stroke="#8c8c8c" stroke-linecap="round" stroke-linejoin="round" stroke-width="1.6"/>
  <path id="Path_288" data-name="Path 288" d="M17.034,21.4A1.586,1.586,0,1,1,18.619,23a1.594,1.594,0,0,1-1.585-1.6" fill="#8c8c8c"/>
  <path id="Path_289" data-name="Path 289" d="M14.253,17.375V21.4H17.7" fill="none" stroke="#8c8c8c" stroke-linecap="round" stroke-linejoin="round" stroke-width="1.6"/>
  <path id="Path_290" data-name="Path 290" d="M1.6,17.034a1.587,1.587,0,1,1,0,3.173,1.587,1.587,0,1,1,0-3.173" fill="#8c8c8c"/>
  <path id="Path_291" data-name="Path 291" d="M5.625,14.253H1.6V17.7" fill="none" stroke="#8c8c8c" stroke-linecap="round" stroke-linejoin="round" stroke-width="1.6"/>
  <path id="Path_292" data-name="Path 292" d="M1.6,5.966a1.586,1.586,0,1,0,0-3.172,1.586,1.586,0,1,0,0,3.172" fill="#8c8c8c"/>
  <path id="Path_293" data-name="Path 293" d="M5.625,8.747H1.6V5.3" fill="none" stroke="#8c8c8c" stroke-linecap="round" stroke-linejoin="round" stroke-width="1.6"/>
  <path id="Path_294" data-name="Path 294" d="M21.4,17.034A1.587,1.587,0,1,0,23,18.62a1.595,1.595,0,0,0-1.6-1.586" fill="#8c8c8c"/>
  <path id="Path_295" data-name="Path 295" d="M17.375,14.253H21.4V17.7" fill="none" stroke="#8c8c8c" stroke-linecap="round" stroke-linejoin="round" stroke-width="1.6"/>
  <path id="Path_296" data-name="Path 296" d="M21.4,5.966A1.586,1.586,0,1,1,23,4.381a1.594,1.594,0,0,1-1.6,1.585" fill="#8c8c8c"/>
  <path id="Path_297" data-name="Path 297" d="M17.375,8.747H21.4V5.3" fill="none" stroke="#8c8c8c" stroke-linecap="round" stroke-linejoin="round" stroke-width="1.6"/>
</svg>
