<svg xmlns="http://www.w3.org/2000/svg" width="23.604" height="23.081" viewBox="0 0 23.604 23.081">
  <g id="Blogs" transform="translate(0 0.124)">
    <path id="Path_234" data-name="Path 234" d="M15.019,9.232l4.909-7.711a1.558,1.558,0,1,1,2.628,1.673l-4.914,7.718-.911,1.414-3.075,1.93.448-3.6Z" fill="none" stroke="#8c8c8c" stroke-linecap="round" stroke-linejoin="round" stroke-width="1.6"/>
    <line id="Line_165" data-name="Line 165" x1="2.38" y1="1.515" transform="translate(19.186 2.905)" fill="none" stroke="#8c8c8c" stroke-linecap="round" stroke-linejoin="round" stroke-width="1.6"/>
    <path id="Path_235" data-name="Path 235" d="M21.148,5.455V17.044a1.112,1.112,0,0,1-1.112,1.112H10.752a1.113,1.113,0,0,0-.759.3l-3.816,3.56a.467.467,0,0,1-.785-.342V19.268A1.112,1.112,0,0,0,4.28,18.156H1.912A1.112,1.112,0,0,1,.8,17.044V4.6A1.112,1.112,0,0,1,1.912,3.49H18.534" fill="none" stroke="#8c8c8c" stroke-linecap="round" stroke-linejoin="round" stroke-width="1.6"/>
    <line id="Line_166" data-name="Line 166" x2="7.923" transform="translate(3.575 14.019)" fill="none" stroke="#8c8c8c" stroke-linecap="round" stroke-linejoin="round" stroke-width="1.6"/>
    <line id="Line_167" data-name="Line 167" x2="8.332" transform="translate(3.575 10.912)" fill="none" stroke="#8c8c8c" stroke-linecap="round" stroke-linejoin="round" stroke-width="1.6"/>
    <line id="Line_168" data-name="Line 168" x2="9.31" transform="translate(3.575 7.805)" fill="none" stroke="#8c8c8c" stroke-linecap="round" stroke-linejoin="round" stroke-width="1.6"/>
  </g>
</svg>
