<svg xmlns="http://www.w3.org/2000/svg" width="23.097" height="23.614" viewBox="0 0 23.097 23.614">
  <g id="Books" transform="translate(0.125 0.014)">
    <path id="Path_242" data-name="Path 242" d="M1.564,5.759A1.141,1.141,0,0,1,.8,4.741V3.277A1.258,1.258,0,0,1,2.041,2.1L10.156.828a1.161,1.161,0,0,1,.889.159l6.044,3.849a4,4,0,0,0,0,3.341L7.672,9.736Z" fill="none" stroke="#8c8c8c" stroke-linecap="round" stroke-linejoin="round" stroke-width="1.6"/>
    <path id="Path_243" data-name="Path 243" d="M7.517,9.635v-2.6s-.1-.668,1.142-.732l8.43-1.463" fill="none" stroke="#8c8c8c" stroke-linecap="round" stroke-linejoin="round" stroke-width="1.6"/>
    <line id="Line_171" data-name="Line 171" x2="6.512" y2="4.174" transform="translate(1.574 2.22)" fill="none" stroke="#8c8c8c" stroke-linecap="round" stroke-linejoin="round" stroke-width="1.6"/>
    <path id="Path_244" data-name="Path 244" d="M16.841,6.491,22,9.834s-.668,2.792.167,4.128l-11.6,1.885L2.75,10.884a1.808,1.808,0,0,1-.621-1.408V7.044" fill="none" stroke="#8c8c8c" stroke-linecap="round" stroke-linejoin="round" stroke-width="1.6"/>
    <path id="Path_245" data-name="Path 245" d="M10.157,15.581v-2.86s-.058-.907,1.278-1.026L22,9.834" fill="none" stroke="#8c8c8c" stroke-linecap="round" stroke-linejoin="round" stroke-width="1.6"/>
    <line id="Line_172" data-name="Line 172" x1="3.011" y1="2.16" transform="translate(7.914 9.635)" fill="none" stroke="#8c8c8c" stroke-linecap="round" stroke-linejoin="round" stroke-width="1.6"/>
    <path id="Path_246" data-name="Path 246" d="M4.83,13.119.8,16.333s.907,2.768,0,4.319L12.253,22.8l7.874-5.417a3.18,3.18,0,0,0,.608-2.947" fill="none" stroke="#8c8c8c" stroke-linecap="round" stroke-linejoin="round" stroke-width="1.6"/>
    <path id="Path_247" data-name="Path 247" d="M.8,16.334l10.57,1.837s1.48.1,1.36,1.241l.007,3.055" fill="none" stroke="#8c8c8c" stroke-linecap="round" stroke-linejoin="round" stroke-width="1.6"/>
    <line id="Line_173" data-name="Line 173" y1="3.513" x2="5.142" transform="translate(11.948 14.788)" fill="none" stroke="#8c8c8c" stroke-linecap="round" stroke-linejoin="round" stroke-width="1.6"/>
  </g>
</svg>
