<svg xmlns="http://www.w3.org/2000/svg" width="94.239" height="77.479" viewBox="0 0 94.239 77.479"><g id="book" transform="translate(18.984 -2.588) rotate(20)"><path id="Path_164" data-name="Path 164" d="M40.466,52.807a58.528,58.528,0,0,0-35.68,1.736A2.994,2.994,0,0,1,.75,51.729V7.64a3,3,0,0,1,3-3H8.141" transform="translate(0)" fill="#499ffe"></path><path id="Path_165" data-name="Path 165" d="M40.466,52.807a58.528,58.528,0,0,0-35.68,1.736A2.994,2.994,0,0,1,.75,51.729V7.64a3,3,0,0,1,3-3H8.141" transform="translate(0)" fill="none" stroke="#fff" stroke-width="1.5"></path><path id="Path_166" data-name="Path 166" d="M40.75,52.822a59.372,59.372,0,0,1,35.974,1.761,2.994,2.994,0,0,0,4.026-2.819V7.64a3,3,0,0,0-3-3H73.359" transform="translate(0)" fill="#499ffe"></path><path id="Path_167" data-name="Path 167" d="M40.75,52.822a59.372,59.372,0,0,1,35.974,1.761,2.994,2.994,0,0,0,4.026-2.819V7.64a3,3,0,0,0-3-3H73.359" transform="translate(0)" fill="none" stroke="#fff" stroke-width="1.5"></path><path id="Path_168" data-name="Path 168" d="M40.481,7.484c-8.854-9.825-32.131-6-32.131-6V43.42a2.993,2.993,0,0,0,3.272,2.987c6.728-.641,22.054-1.151,28.859,6.4" transform="translate(0)" fill="#fff"></path><path id="Path_169" data-name="Path 169" d="M40.481,7.484c-8.854-9.825-32.131-6-32.131-6V43.42a2.993,2.993,0,0,0,3.272,2.987c6.728-.641,22.054-1.151,28.859,6.4" transform="translate(0)" fill="none" stroke="#000" stroke-linecap="round" stroke-linejoin="round" stroke-width="1.5"></path><path id="Path_170" data-name="Path 170" d="M40.765,7.484c8.839-9.825,32.415-6,32.415-6V43.424a2.994,2.994,0,0,1-3.27,2.987c-6.787-.643-22.337-1.171-29.145,6.4" transform="translate(0)" fill="#fff"></path><path id="Path_171" data-name="Path 171" d="M40.765,7.484c8.839-9.825,32.415-6,32.415-6V43.424a2.994,2.994,0,0,1-3.27,2.987c-6.787-.643-22.337-1.171-29.145,6.4" transform="translate(0)" fill="none" stroke="#000" stroke-linecap="round" stroke-linejoin="round" stroke-width="1.5"></path><line id="Line_103" data-name="Line 103" y2="45.069" transform="translate(40.765 7.484)" fill="#fff"></line><line id="Line_104" data-name="Line 104" y2="45.069" transform="translate(40.765 7.484)" fill="none" stroke="#000" stroke-linecap="round" stroke-linejoin="round" stroke-width="1.5"></line><path id="Path_172" data-name="Path 172" d="M33.822,24.244a20.581,20.581,0,0,0-19.843-2.4" transform="translate(0)" fill="#fff"></path><path id="Path_173" data-name="Path 173" d="M33.822,24.244a20.581,20.581,0,0,0-19.843-2.4" transform="translate(0)" fill="none" stroke="#000" stroke-linecap="round" stroke-linejoin="round" stroke-width="1.5"></path><path id="Path_174" data-name="Path 174" d="M33.822,35.532a20.581,20.581,0,0,0-19.843-2.4" transform="translate(0)" fill="#fff"></path><path id="Path_175" data-name="Path 175" d="M33.822,35.532a20.581,20.581,0,0,0-19.843-2.4" transform="translate(0)" fill="none" stroke="#000" stroke-linecap="round" stroke-linejoin="round" stroke-width="1.5"></path><path id="Path_176" data-name="Path 176" d="M67.775,21.84a20.581,20.581,0,0,0-19.843,2.4" transform="translate(0)" fill="#fff"></path><path id="Path_177" data-name="Path 177" d="M67.775,21.84a20.581,20.581,0,0,0-19.843,2.4" transform="translate(0)" fill="none" stroke="#000" stroke-linecap="round" stroke-linejoin="round" stroke-width="1.5"></path><path id="Path_178" data-name="Path 178" d="M33.822,14.052a20.581,20.581,0,0,0-19.843-2.4" transform="translate(0)" fill="#fff"></path><path id="Path_179" data-name="Path 179" d="M33.822,14.052a20.581,20.581,0,0,0-19.843-2.4" transform="translate(0)" fill="none" stroke="#000" stroke-linecap="round" stroke-linejoin="round" stroke-width="1.5"></path><path id="Path_180" data-name="Path 180" d="M67.775,11.648a20.581,20.581,0,0,0-19.843,2.4" transform="translate(0)" fill="#fff"></path><path id="Path_181" data-name="Path 181" d="M67.775,11.648a20.581,20.581,0,0,0-19.843,2.4" transform="translate(0)" fill="none" stroke="#000" stroke-linecap="round" stroke-linejoin="round" stroke-width="1.5"></path><path id="Path_182" data-name="Path 182" d="M67.775,33.143a20.581,20.581,0,0,0-19.843,2.4" transform="translate(0)" fill="#fff"></path><path id="Path_183" data-name="Path 183" d="M67.775,33.143a20.581,20.581,0,0,0-19.843,2.4" transform="translate(0)" fill="none" stroke="#000" stroke-linecap="round" stroke-linejoin="round" stroke-width="1.5"></path></g></svg>