<svg xmlns="http://www.w3.org/2000/svg" width="81.506" height="78.745" viewBox="0 0 81.506 78.745"><g id="color" transform="translate(0.005)"><path id="Path_149" data-name="Path 149" d="M66.207,17.547a25.586,25.586,0,0,0-4.36-6.528A30.685,30.685,0,0,0,42.559,1.086a36.685,36.685,0,0,0-17.142,1.78A37.214,37.214,0,0,0,13.458,9.522,34.381,34.381,0,0,0,3.067,24.157,34.814,34.814,0,0,0,4.323,52a34.3,34.3,0,0,0,9.468,12.1,34.837,34.837,0,0,0,20.987,8.008,35.267,35.267,0,0,0,16.655-3.409,10.068,10.068,0,0,0,2.685-1.6c3.3-3.049,2.254-8.513-1.686-9.884a5.844,5.844,0,0,1-.91-10.851c1.2-.667,2.421-1.3,3.632-1.955.12-.064.238-.129.359-.192A29.506,29.506,0,0,0,61.1,40.7a20.039,20.039,0,0,0,3.6-3.99" fill="#efebff"></path><path id="Path_150" data-name="Path 150" d="M66.207,17.547a25.586,25.586,0,0,0-4.36-6.528A30.685,30.685,0,0,0,42.559,1.086a36.685,36.685,0,0,0-17.142,1.78A37.214,37.214,0,0,0,13.458,9.522,34.381,34.381,0,0,0,3.067,24.157,34.814,34.814,0,0,0,4.323,52a34.3,34.3,0,0,0,9.468,12.1,34.837,34.837,0,0,0,20.987,8.008,35.267,35.267,0,0,0,16.655-3.409,10.068,10.068,0,0,0,2.685-1.6c3.3-3.049,2.254-8.513-1.686-9.884a5.844,5.844,0,0,1-.91-10.851c1.2-.667,2.421-1.3,3.632-1.955.12-.064.238-.129.359-.192A29.506,29.506,0,0,0,61.1,40.7a20.039,20.039,0,0,0,3.6-3.99" fill="none" stroke="#fff" stroke-linecap="round" stroke-linejoin="round" stroke-width="1.5"></path><path id="Path_151" data-name="Path 151" d="M17.1,46.955a5.895,5.895,0,0,1-5.436-10.461A6.025,6.025,0,0,1,19.615,39,6.051,6.051,0,0,1,17.1,46.955" fill="#f8e16a"></path><path id="Path_152" data-name="Path 152" d="M17.1,46.955a5.895,5.895,0,0,1-5.436-10.461A6.025,6.025,0,0,1,19.615,39,6.051,6.051,0,0,1,17.1,46.955Z" fill="none" stroke="#4c241d" stroke-linecap="round" stroke-linejoin="round" stroke-width="1.5"></path><path id="Path_153" data-name="Path 153" d="M22.677,19.76A5.991,5.991,0,0,1,19.55,27.7a5.882,5.882,0,0,1-4.541-10.851c2.915-1.2,6.556.189,7.668,2.915" fill="#e14e4e"></path><path id="Path_154" data-name="Path 154" d="M22.677,19.76A5.991,5.991,0,0,1,19.55,27.7a5.882,5.882,0,0,1-4.541-10.851C17.924,15.649,21.565,17.034,22.677,19.76Z" fill="none" stroke="#4c241d" stroke-linecap="round" stroke-linejoin="round" stroke-width="1.5"></path><path id="Path_155" data-name="Path 155" d="M37.5,18.1a6.065,6.065,0,0,1-8-2.379A5.9,5.9,0,0,1,39.877,10.1a6,6,0,0,1-2.378,8" fill="#66d571"></path><path id="Path_156" data-name="Path 156" d="M37.5,18.1a6.065,6.065,0,0,1-8-2.379A5.9,5.9,0,0,1,39.877,10.1,6,6,0,0,1,37.5,18.1Z" fill="none" stroke="#4c241d" stroke-linecap="round" stroke-linejoin="round" stroke-width="1.5"></path><path id="Path_157" data-name="Path 157" d="M55.34,26.416a6.074,6.074,0,0,1-7.954-2.4,5.892,5.892,0,1,1,7.954,2.4" fill="#62a8fa"></path><path id="Path_158" data-name="Path 158" d="M55.34,26.416a6.074,6.074,0,0,1-7.954-2.4,5.892,5.892,0,1,1,7.954,2.4Z" fill="none" stroke="#4c241d" stroke-linecap="round" stroke-linejoin="round" stroke-width="1.5"></path><path id="Path_159" data-name="Path 159" d="M65.556,32.512,57.748,76.879l5.412,1.116L74.425,34.744" fill="#f4cb00"></path><path id="Path_160" data-name="Path 160" d="M65.556,32.512,57.748,76.879l5.412,1.116L74.425,34.744" fill="none" stroke="#fff" stroke-linecap="round" stroke-linejoin="round" stroke-width="1.5"></path><path id="Path_161" data-name="Path 161" d="M69.387,34.677c-10.964-3.427-4.632-16.836.927-22.1a21.9,21.9,0,0,1,9.619-5.274c-.819.211-1.106,5.116-1.134,5.73-.2,4.473,1.986,8.646,1.951,13.112a8.778,8.778,0,0,1-11.363,8.528" fill="#e14e4e"></path><path id="Path_162" data-name="Path 162" d="M69.387,34.677c-10.964-3.427-4.632-16.836.927-22.1a21.9,21.9,0,0,1,9.619-5.274c-.819.211-1.106,5.116-1.134,5.73-.2,4.473,1.986,8.646,1.951,13.112A8.778,8.778,0,0,1,69.387,34.677Z" fill="none" stroke="#fff" stroke-linecap="round" stroke-linejoin="round" stroke-width="1.5"></path><path id="Path_163" data-name="Path 163" d="M63.71,43a11.817,11.817,0,0,0,8.127,1.676" fill="none" stroke="#fff" stroke-linecap="round" stroke-linejoin="round" stroke-width="1.5"></path></g></svg>