<svg xmlns="http://www.w3.org/2000/svg" width="70.468" height="68.12" viewBox="0 0 70.468 68.12">
  <g id="ColorTools" transform="translate(0.195 0.187)">
    <path id="Path_35" data-name="Path 35" d="M56.856,15.52a21.737,21.737,0,0,0-3.7-5.547A26.067,26.067,0,0,0,36.767,1.536,31.15,31.15,0,0,0,22.205,3.049,31.614,31.614,0,0,0,12.046,8.7,29.2,29.2,0,0,0,3.218,21.135,29.577,29.577,0,0,0,4.285,44.79a29.137,29.137,0,0,0,8.043,10.283,29.592,29.592,0,0,0,17.829,6.8,29.943,29.943,0,0,0,14.148-2.9,8.532,8.532,0,0,0,2.282-1.358c2.806-2.59,1.915-7.232-1.433-8.4a4.964,4.964,0,0,1-.773-9.218c1.021-.567,2.057-1.108,3.085-1.661.1-.054.2-.11.3-.164a25.035,25.035,0,0,0,4.747-2.993,17.028,17.028,0,0,0,3.056-3.39M15.141,40.5a5.008,5.008,0,1,1,2.136-6.759A5.143,5.143,0,0,1,15.141,40.5Zm4.737-23.1a5.092,5.092,0,0,1-2.657,6.742,5,5,0,0,1-3.859-9.218A5.11,5.11,0,0,1,19.878,17.4ZM32.47,15.988a5.152,5.152,0,0,1-6.8-2.021A5.012,5.012,0,0,1,34.489,9.2,5.1,5.1,0,0,1,32.47,15.988Zm15.155,7.065a5.16,5.16,0,0,1-6.757-2.038,5.006,5.006,0,1,1,6.757,2.038Z" transform="translate(-0.188 -0.188)" fill="none" stroke="#328e6d" stroke-linecap="round" stroke-linejoin="round" stroke-width="2.5"/>
    <path id="Path_36" data-name="Path 36" d="M68.982,31.058c-9.314-2.911-3.935-14.3.788-18.771a18.6,18.6,0,0,1,8.172-4.48c-.7.179-.94,4.346-.963,4.868-.173,3.8,1.687,7.345,1.657,11.139A7.457,7.457,0,0,1,68.982,31.058Z" transform="translate(-9.612 -1.175)" fill="none" stroke="#328e6d" stroke-linecap="round" stroke-linejoin="round" stroke-width="2.5"/>
    <path id="Path_37" data-name="Path 37" d="M64.881,33.012,58.248,70.7l4.6.948,9.57-36.743" transform="translate(-8.765 -4.968)" fill="none" stroke="#328e6d" stroke-linecap="round" stroke-linejoin="round" stroke-width="2.5"/>
    <path id="Path_38" data-name="Path 38" d="M64.21,43.5a10.039,10.039,0,0,0,6.9,1.424" transform="translate(-9.662 -6.546)" fill="none" stroke="#328e6d" stroke-linecap="round" stroke-linejoin="round" stroke-width="2.5"/>
  </g>
</svg>
