<svg xmlns="http://www.w3.org/2000/svg" width="23.604" height="21.552" viewBox="0 0 23.604 21.552">
  <g id="color" transform="translate(0.003 0.001)">
    <path id="Path_273" data-name="Path 273" d="M17.707,5.138A6.613,6.613,0,0,0,16.58,3.452,7.925,7.925,0,0,0,11.6.886a9.485,9.485,0,0,0-4.428.46A9.631,9.631,0,0,0,4.082,3.065,8.9,8.9,0,0,0,1.4,6.845a8.995,8.995,0,0,0,.325,7.193,8.859,8.859,0,0,0,2.445,3.126,8.992,8.992,0,0,0,5.421,2.068,9.12,9.12,0,0,0,4.3-.88,2.629,2.629,0,0,0,.693-.413,1.524,1.524,0,0,0-.435-2.553,1.509,1.509,0,0,1-.235-2.8c.31-.172.625-.337.938-.505l.092-.05a7.552,7.552,0,0,0,1.444-.91A4.542,4.542,0,0,0,18,8.418a6.336,6.336,0,0,0,.018-1.668A5.706,5.706,0,0,0,17.707,5.138ZM5.339,13.184a1.523,1.523,0,1,1,.65-2.055A1.564,1.564,0,0,1,5.339,13.184ZM6.78,6.16A1.52,1.52,0,0,1,4.041,7.478,1.52,1.52,0,1,1,6.78,6.16Zm3.828-.429a1.566,1.566,0,0,1-2.066-.615,1.524,1.524,0,0,1,2.68-1.45A1.55,1.55,0,0,1,10.608,5.731Zm4.608,2.148a1.568,1.568,0,0,1-2.054-.62,1.521,1.521,0,1,1,2.054.62Z" fill="none" stroke="#8c8c8c" stroke-linecap="round" stroke-linejoin="round" stroke-width="1.6"/>
    <path id="Path_274" data-name="Path 274" d="M19.865,9.563c-2.832-.885-1.2-4.349.239-5.707a5.654,5.654,0,0,1,2.485-1.362c-.212.054-.286,1.321-.293,1.48-.053,1.155.513,2.233.5,3.386A2.267,2.267,0,0,1,19.865,9.563Z" fill="none" stroke="#8c8c8c" stroke-linecap="round" stroke-linejoin="round" stroke-width="1.6"/>
    <path id="Path_275" data-name="Path 275" d="M18.875,9l-2.017,11.46,1.4.288L21.166,9.58" fill="none" stroke="#8c8c8c" stroke-linecap="round" stroke-linejoin="round" stroke-width="1.6"/>
    <path id="Path_276" data-name="Path 276" d="M18.4,11.713a3.051,3.051,0,0,0,2.1.433" fill="none" stroke="#8c8c8c" stroke-linecap="round" stroke-linejoin="round" stroke-width="1.6"/>
  </g>
</svg>
