<svg xmlns="http://www.w3.org/2000/svg" width="24.598" height="24.599" viewBox="0 0 24.598 24.599">
  <g id="Community" transform="translate(-0.001 -0.001)">
    <path id="Path_253" data-name="Path 253" d="M5.938,4.173a10.263,10.263,0,0,1,5.1-2.117" fill="none" stroke="#8c8c8c" stroke-linecap="round" stroke-linejoin="round" stroke-width="1.6"/>
    <path id="Path_254" data-name="Path 254" d="M2.053,11.058A10.27,10.27,0,0,1,4.172,5.939" fill="none" stroke="#8c8c8c" stroke-linecap="round" stroke-linejoin="round" stroke-width="1.6"/>
    <path id="Path_255" data-name="Path 255" d="M4.2,18.692a10.264,10.264,0,0,1-2.143-5.151" fill="none" stroke="#8c8c8c" stroke-linecap="round" stroke-linejoin="round" stroke-width="1.6"/>
    <path id="Path_256" data-name="Path 256" d="M11.066,22.548A10.268,10.268,0,0,1,5.942,20.43" fill="none" stroke="#8c8c8c" stroke-linecap="round" stroke-linejoin="round" stroke-width="1.6"/>
    <path id="Path_257" data-name="Path 257" d="M18.651,20.435a10.264,10.264,0,0,1-5.062,2.105" fill="none" stroke="#8c8c8c" stroke-linecap="round" stroke-linejoin="round" stroke-width="1.6"/>
    <path id="Path_258" data-name="Path 258" d="M22.548,13.532a10.267,10.267,0,0,1-2.117,5.125" fill="none" stroke="#8c8c8c" stroke-linecap="round" stroke-linejoin="round" stroke-width="1.6"/>
    <path id="Path_259" data-name="Path 259" d="M20.408,5.914a10.261,10.261,0,0,1,2.138,5.142" fill="none" stroke="#8c8c8c" stroke-linecap="round" stroke-linejoin="round" stroke-width="1.6"/>
    <path id="Path_260" data-name="Path 260" d="M13.563,2.056a10.269,10.269,0,0,1,5.084,2.106" fill="none" stroke="#8c8c8c" stroke-linecap="round" stroke-linejoin="round" stroke-width="1.6"/>
    <path id="Path_261" data-name="Path 261" d="M13.479,1.98A1.18,1.18,0,1,1,12.3.8,1.179,1.179,0,0,1,13.479,1.98Z" fill="none" stroke="#8c8c8c" stroke-linecap="round" stroke-linejoin="round" stroke-width="1.6"/>
    <path id="Path_262" data-name="Path 262" d="M13.479,22.621A1.18,1.18,0,1,1,12.3,21.442,1.179,1.179,0,0,1,13.479,22.621Z" fill="none" stroke="#8c8c8c" stroke-linecap="round" stroke-linejoin="round" stroke-width="1.6"/>
    <path id="Path_263" data-name="Path 263" d="M1.98,11.121A1.179,1.179,0,1,1,.8,12.3,1.178,1.178,0,0,1,1.98,11.121Z" fill="none" stroke="#8c8c8c" stroke-linecap="round" stroke-linejoin="round" stroke-width="1.6"/>
    <path id="Path_264" data-name="Path 264" d="M22.621,11.121a1.179,1.179,0,1,1-1.18,1.179A1.179,1.179,0,0,1,22.621,11.121Z" fill="none" stroke="#8c8c8c" stroke-linecap="round" stroke-linejoin="round" stroke-width="1.6"/>
    <circle id="Ellipse_29" data-name="Ellipse 29" cx="1.179" cy="1.179" r="1.179" transform="translate(3.823 3.823)" fill="none" stroke="#8c8c8c" stroke-linecap="round" stroke-linejoin="round" stroke-width="1.6"/>
    <circle id="Ellipse_30" data-name="Ellipse 30" cx="1.179" cy="1.179" r="1.179" transform="translate(18.418 18.418)" fill="none" stroke="#8c8c8c" stroke-linecap="round" stroke-linejoin="round" stroke-width="1.6"/>
    <circle id="Ellipse_31" data-name="Ellipse 31" cx="1.179" cy="1.179" r="1.179" transform="translate(18.418 3.823)" fill="none" stroke="#8c8c8c" stroke-linecap="round" stroke-linejoin="round" stroke-width="1.6"/>
    <circle id="Ellipse_32" data-name="Ellipse 32" cx="1.179" cy="1.179" r="1.179" transform="translate(3.823 18.418)" fill="none" stroke="#8c8c8c" stroke-linecap="round" stroke-linejoin="round" stroke-width="1.6"/>
    <path id="Path_265" data-name="Path 265" d="M12.3,7.672a2.15,2.15,0,0,0-2.113,2.183,2.174,2.174,0,0,0,.2.9,2.093,2.093,0,0,0,2.788,1.057,2.118,2.118,0,0,0,1.043-1.057A2.17,2.17,0,0,0,13.212,7.88,2.106,2.106,0,0,0,12.3,7.672Z" fill="none" stroke="#8c8c8c" stroke-linecap="round" stroke-linejoin="round" stroke-width="1.6"/>
    <path id="Path_266" data-name="Path 266" d="M14.62,16.927h1.725a4.04,4.04,0,0,0-6.913-2.659,4.245,4.245,0,0,0-1.177,2.656H14.62Z" fill="none" stroke="#8c8c8c" stroke-linecap="round" stroke-linejoin="round" stroke-width="1.6"/>
  </g>
</svg>
