<svg xmlns="http://www.w3.org/2000/svg" width="66.015" height="66.015" viewBox="0 0 66.015 66.015">
  <g id="Community" transform="translate(0.258 0.258)">
    <path id="Path_54" data-name="Path 54" d="M19.122,11.465A28.36,28.36,0,0,1,33.21,5.618" transform="translate(-3.94 -1.158)" fill="none" stroke="#a05033" stroke-linecap="round" stroke-linejoin="round" stroke-width="2.5"/>
    <path id="Path_55" data-name="Path 55" d="M5.61,33.26a28.359,28.359,0,0,1,5.852-14.137" transform="translate(-1.156 -3.941)" fill="none" stroke="#a05033" stroke-linecap="round" stroke-linejoin="round" stroke-width="2.5"/>
    <path id="Path_56" data-name="Path 56" d="M11.527,59.79A28.361,28.361,0,0,1,5.609,45.566" transform="translate(-1.156 -9.389)" fill="none" stroke="#a05033" stroke-linecap="round" stroke-linejoin="round" stroke-width="2.5"/>
    <path id="Path_57" data-name="Path 57" d="M33.284,75.375a28.361,28.361,0,0,1-14.15-5.848" transform="translate(-3.943 -14.327)" fill="none" stroke="#a05033" stroke-linecap="round" stroke-linejoin="round" stroke-width="2.5"/>
    <path id="Path_58" data-name="Path 58" d="M59.713,69.547a28.362,28.362,0,0,1-13.98,5.814" transform="translate(-9.424 -14.331)" fill="none" stroke="#a05033" stroke-linecap="round" stroke-linejoin="round" stroke-width="2.5"/>
    <path id="Path_59" data-name="Path 59" d="M75.377,45.535A28.356,28.356,0,0,1,69.53,59.689" transform="translate(-14.327 -9.383)" fill="none" stroke="#a05033" stroke-linecap="round" stroke-linejoin="round" stroke-width="2.5"/>
    <path id="Path_60" data-name="Path 60" d="M69.452,19.039a28.361,28.361,0,0,1,5.9,14.2" transform="translate(-14.311 -3.923)" fill="none" stroke="#a05033" stroke-linecap="round" stroke-linejoin="round" stroke-width="2.5"/>
    <path id="Path_61" data-name="Path 61" d="M45.644,5.619a28.355,28.355,0,0,1,14.04,5.815" transform="translate(-9.405 -1.158)" fill="none" stroke="#a05033" stroke-linecap="round" stroke-linejoin="round" stroke-width="2.5"/>
    <path id="Path_62" data-name="Path 62" d="M43.662,4.508A3.257,3.257,0,1,1,40.4,1.25,3.258,3.258,0,0,1,43.662,4.508Z" transform="translate(-7.655 -0.258)" fill="none" stroke="#a05033" stroke-linecap="round" stroke-linejoin="round" stroke-width="2.5"/>
    <path id="Path_63" data-name="Path 63" d="M43.662,76.3A3.257,3.257,0,1,1,40.4,73.044,3.258,3.258,0,0,1,43.662,76.3Z" transform="translate(-7.655 -15.052)" fill="none" stroke="#a05033" stroke-linecap="round" stroke-linejoin="round" stroke-width="2.5"/>
    <path id="Path_64" data-name="Path 64" d="M4.508,37.147A3.257,3.257,0,1,1,1.25,40.4,3.258,3.258,0,0,1,4.508,37.147Z" transform="translate(-0.258 -7.655)" fill="none" stroke="#a05033" stroke-linecap="round" stroke-linejoin="round" stroke-width="2.5"/>
    <path id="Path_65" data-name="Path 65" d="M76.3,37.147A3.257,3.257,0,1,1,73.044,40.4,3.258,3.258,0,0,1,76.3,37.147Z" transform="translate(-15.052 -7.655)" fill="none" stroke="#a05033" stroke-linecap="round" stroke-linejoin="round" stroke-width="2.5"/>
    <circle id="Ellipse_8" data-name="Ellipse 8" cx="3.257" cy="3.257" r="3.257" transform="translate(9.34 9.34)" fill="none" stroke="#a05033" stroke-linecap="round" stroke-linejoin="round" stroke-width="2.5"/>
    <circle id="Ellipse_9" data-name="Ellipse 9" cx="3.257" cy="3.257" r="3.257" transform="translate(49.646 49.646)" fill="none" stroke="#a05033" stroke-linecap="round" stroke-linejoin="round" stroke-width="2.5"/>
    <circle id="Ellipse_10" data-name="Ellipse 10" cx="3.257" cy="3.257" r="3.257" transform="translate(49.646 9.34)" fill="none" stroke="#a05033" stroke-linecap="round" stroke-linejoin="round" stroke-width="2.5"/>
    <circle id="Ellipse_11" data-name="Ellipse 11" cx="3.257" cy="3.257" r="3.257" transform="translate(9.34 49.646)" fill="none" stroke="#a05033" stroke-linecap="round" stroke-linejoin="round" stroke-width="2.5"/>
    <path id="Path_66" data-name="Path 66" d="M39.735,26.891A5.934,5.934,0,0,0,33.9,32.919a6.05,6.05,0,0,0,.558,2.48,5.782,5.782,0,0,0,7.7,2.92A5.86,5.86,0,0,0,45.04,35.4a5.99,5.99,0,0,0-2.788-7.933A5.8,5.8,0,0,0,39.735,26.891Z" transform="translate(-6.986 -5.541)" fill="none" stroke="#a05033" stroke-linecap="round" stroke-linejoin="round" stroke-width="2.5"/>
    <path id="Path_67" data-name="Path 67" d="M44.757,52.839l4.763,0A11.249,11.249,0,0,0,37.672,42.2a11.127,11.127,0,0,0-7.241,3.3,11.707,11.707,0,0,0-3.25,7.334l4.8,0Z" transform="translate(-5.601 -8.691)" fill="none" stroke="#a05033" stroke-linecap="round" stroke-linejoin="round" stroke-width="2.5"/>
  </g>
</svg>
