<svg fill="none" height="160" viewBox="0 0 432 160" width="432" xmlns="http://www.w3.org/2000/svg" xmlns:xlink="http://www.w3.org/1999/xlink"><clipPath id="a"><path d="m0 0h432v160h-432z"/></clipPath><clipPath id="b"><path d="m184 48h64v64h-64z"/></clipPath><g clip-path="url(#a)"><path d="m0 0h432v160h-432z" fill="#020816"/><g clip-path="url(#b)"><path d="m243.244 74.2526c.711-2.1436.958-4.4144.722-6.6606-.236-2.2463-.949-4.4164-2.09-6.3653-1.693-2.9459-4.277-5.2783-7.38-6.6608s-6.566-1.7438-9.888-1.0318c-1.887-2.0993-4.293-3.665-6.977-4.5399-2.684-.875-5.551-1.0283-8.313-.4447-2.762.5837-5.321 1.8838-7.422 3.7698-2.1 1.886-3.667 4.2915-4.544 6.9748-2.213.4539-4.304 1.3749-6.133 2.7014-1.828 1.3266-3.353 3.0282-4.471 4.9912-1.711 2.9409-2.442 6.3496-2.088 9.7333.355 3.3838 1.776 6.5673 4.058 9.0902-.714 2.1425-.963 4.4129-.729 6.6593s.944 4.417 2.085 6.3666c1.694 2.9469 4.28 5.2799 7.386 6.6619 3.105 1.383 6.57 1.744 9.894 1.031 1.499 1.688 3.341 3.037 5.404 3.957 2.062.92 4.297 1.389 6.555 1.376 3.405.003 6.722-1.076 9.474-3.081s4.795-4.833 5.836-8.075c2.212-.455 4.303-1.376 6.131-2.7025 1.829-1.3265 3.353-3.0277 4.472-4.9902 1.691-2.9365 2.41-6.3325 2.053-9.7021-.356-3.3696-1.768-6.5403-4.035-9.0586zm-23.931 33.4434c-2.789.004-5.49-.973-7.63-2.761l.376-.213 12.675-7.3165c.315-.185.577-.4489.76-.7657.182-.3168.279-.6757.281-1.0414v-17.8698l5.359 3.0996c.026.0135.049.033.067.057.017.024.029.0518.033.0811v14.8078c-.006 3.1598-1.264 6.1879-3.499 8.4229-2.234 2.234-5.263 3.492-8.422 3.499zm-25.625-10.9431c-1.399-2.4147-1.901-5.2453-1.418-7.9937l.376.2259 12.687 7.3161c.314.1842.671.2813 1.035.2813s.722-.0971 1.036-.2813l15.498-8.9349v6.1866c-.002.0321-.01.0634-.026.0917-.015.0282-.036.0526-.062.0715l-12.838 7.4039c-2.739 1.578-5.994 2.005-9.047 1.186-3.054-.819-5.659-2.8159-7.241-5.5531zm-3.338-27.6078c1.408-2.4303 3.63-4.284 6.274-5.2329v15.0588c-.005.3638.088.7223.269 1.0379.181.3157.444.5769.76.7566l15.423 8.8973-5.359 3.0996c-.029.0153-.061.0234-.094.0234s-.065-.0081-.094-.0234l-12.812-7.3914c-2.735-1.5851-4.73-4.1893-5.549-7.2422-.818-3.053-.393-6.306 1.182-9.0464zm44.022 10.2275-15.473-8.9851 5.345-3.0871c.029-.0154.062-.0234.095-.0234.032 0 .065.008.094.0234l12.812 7.4039c1.959 1.1304 3.556 2.7948 4.605 4.7988 1.048 2.0039 1.505 4.2648 1.317 6.5187s-1.014 4.4077-2.38 6.2101-3.217 3.1789-5.336 3.9689v-15.0588c-.011-.3632-.117-.7173-.306-1.0275s-.456-.5659-.773-.7419zm5.333-8.0189-.377-.2259-12.662-7.3788c-.315-.1853-.675-.283-1.041-.283s-.726.0977-1.042.283l-15.485 8.9349v-6.1866c-.003-.0315.002-.0633.015-.092s.034-.0533.06-.0712l12.813-7.3914c1.963-1.1312 4.209-1.68 6.473-1.582 2.264.0979 4.453.8385 6.312 2.1351s3.31 3.0956 4.183 5.1866c.874 2.091 1.134 4.3876.751 6.6211zm-33.531 10.9679-5.359-3.0871c-.026-.0162-.049-.0381-.066-.0641-.018-.026-.029-.0555-.034-.0865v-14.7702c.003-2.2658.651-4.4839 1.868-6.395 1.217-1.9112 2.953-3.4363 5.005-4.3971 2.052-.9609 4.335-1.3177 6.583-1.0288 2.247.2889 4.366 1.2116 6.108 2.6601l-.376.2134-12.675 7.3161c-.315.185-.577.4488-.76.7657-.183.3168-.28.6756-.282 1.0413zm2.911-6.2745 6.902-3.9781 6.915 3.9781v7.956l-6.89 3.9781-6.914-3.9781z" fill="#fff"/></g></g></svg>