<svg xmlns="http://www.w3.org/2000/svg" width="20.2" height="23.601" viewBox="0 0 20.2 23.601">
  <g id="Designtools" transform="translate(0)">
    <path id="Rectangle_93" data-name="Rectangle 93" d="M.962,0H14.4a.963.963,0,0,1,.963.963v.955a.963.963,0,0,1-.963.963H.963A.963.963,0,0,1,0,1.918V.962A.962.962,0,0,1,.962,0Z" transform="translate(2.373 10.231)" fill="none" stroke="#8c8c8c" stroke-linecap="round" stroke-linejoin="round" stroke-width="1.6"/>
    <path id="Path_267" data-name="Path 267" d="M3.459,13.113l1.584,8.962a.878.878,0,0,0,.865.726h8.351a.879.879,0,0,0,.863-.712l1.739-8.976" fill="none" stroke="#8c8c8c" stroke-linecap="round" stroke-linejoin="round" stroke-width="1.6"/>
    <path id="Path_268" data-name="Path 268" d="M11.533.8a10.242,10.242,0,0,0-1.077,1,5.849,5.849,0,0,0-1.8,4.714,1.755,1.755,0,0,0,2.159,1.359c1.49-.369,1.4-2.141.83-3.192A4.523,4.523,0,0,1,11.533.8Z" fill="none" stroke="#8c8c8c" stroke-linecap="round" stroke-linejoin="round" stroke-width="1.6"/>
    <line id="Line_174" data-name="Line 174" x1="0.319" y2="2.758" transform="translate(8.877 7.473)" fill="none" stroke="#8c8c8c" stroke-linecap="round" stroke-linejoin="round" stroke-width="1.6"/>
    <line id="Line_175" data-name="Line 175" x2="0.506" y2="2.576" transform="translate(11.328 7.655)" fill="none" stroke="#8c8c8c" stroke-linecap="round" stroke-linejoin="round" stroke-width="1.6"/>
    <path id="Path_269" data-name="Path 269" d="M15.234,7.2l.125-2.317L18.9,2.225l.5.281-.313,4.385L17.019,8.363Z" fill="none" stroke="#8c8c8c" stroke-linecap="round" stroke-linejoin="round" stroke-width="1.6"/>
    <line id="Line_176" data-name="Line 176" y1="2.306" x2="1.303" transform="translate(16.33 7.925)" fill="none" stroke="#8c8c8c" stroke-linecap="round" stroke-linejoin="round" stroke-width="1.6"/>
    <line id="Line_177" data-name="Line 177" y1="3.624" x2="2.757" transform="translate(12.51 6.607)" fill="none" stroke="#8c8c8c" stroke-linecap="round" stroke-linejoin="round" stroke-width="1.6"/>
    <path id="Path_270" data-name="Path 270" d="M8.237,10.231,3.556,2.376.8,4.005l3.607,6.226" fill="none" stroke="#8c8c8c" stroke-linecap="round" stroke-linejoin="round" stroke-width="1.6"/>
  </g>
</svg>
