<svg xmlns="http://www.w3.org/2000/svg" width="55.731" height="65.464" viewBox="0 0 55.731 65.464">
  <g id="Design_Tools" data-name="Design Tools" transform="translate(0.266 0.266)">
    <rect id="Rectangle_15" data-name="Rectangle 15" width="43.979" height="8.246" rx="3.5" transform="translate(5.486 27.977)" fill="none" stroke="#9f466b" stroke-linecap="round" stroke-linejoin="round" stroke-width="2.5"/>
    <path id="Path_27" data-name="Path 27" d="M10.918,46.023l4.533,25.649a2.514,2.514,0,0,0,2.476,2.077h23.9A2.514,2.514,0,0,0,44.3,71.712l4.978-25.689" transform="translate(-2.325 -9.8)" fill="none" stroke="#9f466b" stroke-linecap="round" stroke-linejoin="round" stroke-width="2.5"/>
    <path id="Path_28" data-name="Path 28" d="M38.009,1.25a29.147,29.147,0,0,0-3.082,2.862C31.661,7.433,28.92,12.835,29.774,17.6a5.025,5.025,0,0,0,6.18,3.89c4.264-1.056,4-6.129,2.376-9.135A12.944,12.944,0,0,1,38.009,1.25Z" transform="translate(-6.307 -0.266)" fill="none" stroke="#9f466b" stroke-linecap="round" stroke-linejoin="round" stroke-width="2.5"/>
    <line id="Line_31" data-name="Line 31" x1="0.915" y2="7.894" transform="translate(24.099 20.083)" fill="none" stroke="#9f466b" stroke-linecap="round" stroke-linejoin="round" stroke-width="2.5"/>
    <line id="Line_32" data-name="Line 32" x2="1.448" y2="7.372" transform="translate(31.116 20.604)" fill="none" stroke="#9f466b" stroke-linecap="round" stroke-linejoin="round" stroke-width="2.5"/>
    <path id="Path_29" data-name="Path 29" d="M34.6,14.743s-2.541,4.937,0,9.684" transform="translate(-7.128 -3.139)" fill="none" stroke="#9f466b" stroke-linecap="round" stroke-linejoin="round" stroke-width="2.5"/>
    <path id="Path_30" data-name="Path 30" d="M53.738,20.681l.359-6.633L64.225,6.43l1.434.807-.9,12.548L58.847,24Z" transform="translate(-11.443 -1.369)" fill="none" stroke="#9f466b" stroke-linecap="round" stroke-linejoin="round" stroke-width="2.5"/>
    <line id="Line_33" data-name="Line 33" y1="6.599" x2="3.728" transform="translate(45.432 21.378)" fill="none" stroke="#9f466b" stroke-linecap="round" stroke-linejoin="round" stroke-width="2.5"/>
    <line id="Line_34" data-name="Line 34" y1="10.372" x2="7.89" transform="translate(34.497 17.605)" fill="none" stroke="#9f466b" stroke-linecap="round" stroke-linejoin="round" stroke-width="2.5"/>
    <line id="Line_35" data-name="Line 35" x1="5.301" y2="9.603" transform="translate(48.255 5.496)" fill="none" stroke="#9f466b" stroke-linecap="round" stroke-linejoin="round" stroke-width="2.5"/>
    <path id="Path_31" data-name="Path 31" d="M62.187,19.2a1.9,1.9,0,1,1-1.9-1.9,1.9,1.9,0,0,1,1.9,1.9" transform="translate(-12.432 -3.683)" fill="#9f466b"/>
    <path id="Path_32" data-name="Path 32" d="M22.534,29.464,9.137,6.984,1.25,11.645,11.573,29.464" transform="translate(-0.266 -1.487)" fill="none" stroke="#9f466b" stroke-linecap="round" stroke-linejoin="round" stroke-width="2.5"/>
  </g>
</svg>
