<svg fill="none" height="160" viewBox="0 0 432 160" width="432" xmlns="http://www.w3.org/2000/svg" xmlns:xlink="http://www.w3.org/1999/xlink"><clipPath id="a"><path d="m0 0h432v160h-432z"/></clipPath><g clip-path="url(#a)"><path d="m0 0h432v160h-432z" fill="#ffabe7"/><g fill="#f2f2f2" opacity=".1"><path clip-rule="evenodd" d="m424.652 154.813c0 .667.541 1.208 1.209 1.208.667 0 1.208-.541 1.208-1.208 0-.603-.441-1.102-1.017-1.194.578.089 1.021.593 1.021 1.196 0 .665-.54 1.21-1.205 1.21h-1.355c-.289-.322-.465-.747-.465-1.212 0-.464.174-.887.461-1.208h1.303c-.645.025-1.16.556-1.16 1.208z" fill-rule="evenodd" opacity=".3"/><path clip-rule="evenodd" d="m421.629 154.813c0 .667.541 1.208 1.208 1.208s1.209-.541 1.209-1.208c0-.598-.435-1.095-1.005-1.192.572.095 1.008.595 1.008 1.194 0 .665-.54 1.21-1.205 1.21h-1.355c-.289-.322-.465-.747-.465-1.212 0-.464.175-.887.461-1.208h1.304c-.645.025-1.16.556-1.16 1.208z" fill-rule="evenodd" opacity=".3"/><rect height="2.41952" opacity=".5" rx="1.2053" width="8.46833" x="418.604" y="153.605"/><g clip-rule="evenodd" fill-rule="evenodd"><path d="m426.051 153.62c.575.092 1.015.594 1.015 1.195 0 .665-.54 1.21-1.205 1.21h-1.355c.332.368.813.6 1.348.6 1.001 0 1.812-.811 1.812-1.812s-.811-1.813-1.812-1.813c-.537 0-1.02.234-1.352.605h1.304c.016-.001.032-.001.048-.001.067 0 .133.006.197.016z"/><path d="m423.041 153.621c.572.095 1.008.595 1.008 1.194 0 .665-.539 1.21-1.205 1.21h-1.355c.332.368.813.6 1.348.6 1.001 0 1.813-.811 1.813-1.812s-.812-1.813-1.813-1.813c-.537 0-1.02.234-1.352.605h1.304c.016-.001.032-.001.048-.001.07 0 .138.006.204.017z"/><path d="m419.813 156.021c-.668 0-1.209-.541-1.209-1.208 0-.668.541-1.209 1.209-1.209.667 0 1.208.541 1.208 1.209 0 .667-.541 1.208-1.208 1.208zm0 .604c-1.001 0-1.813-.811-1.813-1.812s.812-1.813 1.813-1.813 1.812.812 1.812 1.813-.811 1.812-1.812 1.812z"/></g></g><g clip-rule="evenodd" fill="#b8509a" fill-rule="evenodd"><path d="m182 79.9948c0-18.7654 15.219-33.9948 34-33.9948 18.783 0 33.999 15.2425 33.999 34.0053 0 18.7654-15.218 33.9947-33.999 33.9947h-2.76v-.123c-17.478-1.404-31.24-16.0452-31.24-33.8822zm34.844 28.4792c15.345-.447 27.64-13.0301 27.64-28.4687 0-15.7211-12.75-28.4868-28.484-28.4868s-28.484 12.7552-28.484 28.4763c0 15.7185 12.763 28.4792 28.484 28.4792z"/><path d="m202.229 55.086c-.38-.1203-.772-.2433-1.177-.3819l1.77-5.2229.798.2589c.615.1962 1.386.442 1.849.6094l.026.0079.024.0104.403.1517c.711.2694 1.592.6016 2.327.9468l.034.0157.144.0732c.348.1595.866.408 1.3.6146l.601.2851.063.0314.066.034.052.0261c.149.0811.426.2302.693.3923l.073.0471.021.0131c.084.0487.168.0958.254.1412l.026.0131.073.0419.079.047.146.0837c.194.1073.502.2877.79.4525.298.1752.751.4446 1.085.6774.359.2197.754.4917 1.015.6747l.128.089c.202.1229.4.2615.536.3609.197.1412.411.3008.607.4472l.251.1883c.184.1384.368.2762.552.4133l.021.013.071.0471.07.0523c3.045 2.3199 5.754 5.0451 8.069 8.0816l.002.0052c2.557 3.369 4.574 7.1155 5.979 11.1049 4.171 11.6542 2.945 25.1178-3.612 35.7468l-4.694-2.895c5.649-9.1589 6.739-20.8707 3.112-31.0001l-.005-.0078v-.0079c-1.215-3.4521-2.961-6.6939-5.174-9.6089-2-2.6289-4.342-4.9791-6.964-6.9883-.148-.1039-.293-.2103-.437-.3191l-.332-.2485-.225-.17c-.166-.1255-.334-.2493-.502-.3713l-.181-.1256-.081-.0471-.097-.0627-.379-.2616c-.215-.1532-.436-.2988-.661-.4367l-.134-.0785-.125-.0968c.007.0053.007.0053-.003 0l-.183-.1203c-.466-.2794-.935-.5531-1.407-.8212h-.005l-.047-.0262-.021-.013c-.13-.0717-.259-.1441-.387-.2171-.074-.0427-.146-.0872-.218-.1334-.112-.068-.235-.1308-.376-.2092l-.005-.0026-.612-.293c-.427-.2013-.9-.4289-1.23-.5806l-.034-.0157-.149-.0758c-.523-.2406-1.145-.476-1.843-.7428l-.466-.1752c-.429-.1569-.876-.2929-1.344-.442z"/><path d="m213.849 68.2102c8.325-1.5039 16.006-6.1723 21.26-12.8154l4.326 3.4183c-6.07 7.6788-14.934 13.0769-24.605 14.824-4.825.8811-9.768.8856-14.594.0131-4.83-.8587-9.463-2.5915-13.671-5.1131l2.838-4.7286c3.633 2.1764 7.633 3.6716 11.803 4.4121h.008l.005.0027c4.153.7636 8.435.7427 12.627-.0131m-14.732 39.7458c4.708-24.03 29.198-37.2978 49.224-31.8395l-1.452 5.3197c-17-4.6345-38.278 6.7608-42.358 27.5788z"/></g></g></svg>