<svg xmlns="http://www.w3.org/2000/svg" width="95.2" height="80.586" viewBox="0 0 95.2 80.586"><g id="Fonts" transform="translate(19.002 -31.544) rotate(19)"><path id="Path_116" data-name="Path 116" d="M27.411,30.007H50.784L67.4,83.559H50.785L47.694,71.613H30.179L26.938,83.559H10Z" transform="translate(0 0.92)" fill="none" stroke="#fff" stroke-linecap="round" stroke-linejoin="round" stroke-width="1.5"></path><path id="Path_117" data-name="Path 117" d="M36.439,40.6,30.347,58.5h12.1Z" transform="translate(2.306 2.121)" fill="none" stroke="#fff" stroke-linecap="round" stroke-linejoin="round" stroke-width="1.5"></path><g id="Group_49" data-name="Group 49" transform="translate(63.321 21.892)"><path id="Path_118" data-name="Path 118" d="M85.805,77.371h-.121a13.726,13.726,0,0,1-3.39,2.557,11.338,11.338,0,0,1-2.422.953A10.879,10.879,0,0,1,77,81.245a11.488,11.488,0,0,1-3.906-.651,8.825,8.825,0,0,1-3.117-1.877,8.7,8.7,0,0,1-2.043-2.966,9.831,9.831,0,0,1-.741-3.89,10.028,10.028,0,0,1,.863-4.237,9.029,9.029,0,0,1,2.407-3.179,10.641,10.641,0,0,1,3.692-1.983,15.671,15.671,0,0,1,4.753-.681,23.612,23.612,0,0,1,3.511.243,24.6,24.6,0,0,1,2.815.574v-1.18a5.739,5.739,0,0,0-.347-1.982,4.473,4.473,0,0,0-1.12-1.7,5.529,5.529,0,0,0-2.013-1.179,9.109,9.109,0,0,0-3.028-.44,20.1,20.1,0,0,0-4.358.484,34.374,34.374,0,0,0-4.723,1.453v-5.6a23.621,23.621,0,0,1,4.693-1.484,27.151,27.151,0,0,1,5.206-.546,18.064,18.064,0,0,1,5.615.788,11.836,11.836,0,0,1,4.027,2.163A8.778,8.778,0,0,1,91.6,56.635a10.317,10.317,0,0,1,.8,4.086V71.769q0,2.907.06,4.994t.121,3.724H86.108Zm-.576-9.384q-1.029-.242-2.36-.439a18.4,18.4,0,0,0-2.7-.2,7.268,7.268,0,0,0-4.161,1.044,3.6,3.6,0,0,0-1.53,3.194,4.052,4.052,0,0,0,.348,1.74,3.438,3.438,0,0,0,.939,1.226,3.988,3.988,0,0,0,1.377.727,5.624,5.624,0,0,0,1.664.242,7.17,7.17,0,0,0,2.059-.287,9.479,9.479,0,0,0,1.786-.727,8.678,8.678,0,0,0,1.468-.983,10.194,10.194,0,0,0,1.1-1.061Z" transform="translate(-56.839 -18.657)" fill="#f6cf44"></path><path id="Path_119" data-name="Path 119" d="M71.891,49.954c-3.407-3.112-7.535-6.574-10.944-9.682a7.792,7.792,0,0,1-2.025-5.612A7.039,7.039,0,0,1,61.58,29.4l2.528-.914-.084.031,2.521-.939a7.036,7.036,0,0,1,5.426,2.289,7.8,7.8,0,0,1,2.088,5.59c-.59,4.575-1.5,9.886-2.084,14.462Z" transform="translate(-57.777 -21.247)" fill="none" stroke="#fff" stroke-linecap="round" stroke-linejoin="round" stroke-width="1.5"></path><rect id="Rectangle_52" data-name="Rectangle 52" width="8.941" height="3.992" transform="translate(0 3.121) rotate(-20.427)" fill="none" stroke="#fff" stroke-linecap="round" stroke-linejoin="round" stroke-width="1.5"></rect><rect id="Rectangle_53" data-name="Rectangle 53" width="2.8" height="2.8" transform="translate(13.718 31.44) rotate(-20.431)" fill="none" stroke="#fff" stroke-linecap="round" stroke-linejoin="round" stroke-width="1.5"></rect><line id="Line_87" data-name="Line 87" x1="17.663" y2="6.578" transform="translate(6.792 28.975)" fill="none" stroke="#fff" stroke-linecap="round" stroke-linejoin="round" stroke-width="1.5"></line><path id="Path_120" data-name="Path 120" d="M61.618,55.1a1.4,1.4,0,1,1,1.8.824A1.4,1.4,0,0,1,61.618,55.1Z" transform="translate(-57.481 -18.342)" fill="none" stroke="#fff" stroke-linecap="round" stroke-linejoin="round" stroke-width="1.5"></path><path id="Path_121" data-name="Path 121" d="M79.882,48.068a1.4,1.4,0,1,1,1.8.824A1.4,1.4,0,0,1,79.882,48.068Z" transform="translate(-55.411 -19.139)" fill="none" stroke="#fff" stroke-linecap="round" stroke-linejoin="round" stroke-width="1.5"></path><line id="Line_88" data-name="Line 88" x1="4.451" y1="12.128" transform="translate(9.664 16.579)" fill="none" stroke="#fff" stroke-linecap="round" stroke-linejoin="round" stroke-width="1.5"></line><path id="Path_122" data-name="Path 122" d="M67.244,35.258a1.089,1.089,0,1,1-1.4-.647A1.089,1.089,0,0,1,67.244,35.258Z" transform="translate(-57.073 -20.458)" fill="none" stroke="#fff" stroke-linecap="round" stroke-linejoin="round" stroke-width="1.5"></path></g></g></svg>