<svg xmlns="http://www.w3.org/2000/svg" width="226.467" height="38.343" viewBox="0 0 226.467 38.343"><g id="logo" transform="translate(0)"><path id="Path_316" data-name="Path 316" d="M13.428,26.086c-7.422,0-13.781-6.1-13.412-13.605C.433,3.982,8.53-1.671,17.59.582a12.866,12.866,0,0,1,9.088,8.952c.512,1.635.509,3.308.884,4.969a6.529,6.529,0,0,0,6.43,5.084A6.54,6.54,0,0,0,35.9,6.82,6.042,6.042,0,0,0,32.6,6.786,10.878,10.878,0,0,0,29.022,8.8c-.153.114-.305.228-.452.35a12.171,12.171,0,0,0-3.188-5.991A13,13,0,0,1,34.546.016c6.657.321,12.541,5.671,12.8,12.331a15.564,15.564,0,0,1-1.619,7.016L34.572,38.343H26.567L33.9,26.086a13.11,13.11,0,0,1-12.2-8.443c-.877-2.44-.651-5.116-1.961-7.423a6.8,6.8,0,0,0-12.823,2.2,6.522,6.522,0,0,0,6.516,7.165c1.76-.023,2.862-.046,5.358-2.586a14.743,14.743,0,0,0,4.246,6.726L14.153,38.343H6.237Z" transform="translate(0 0)" fill="#a1a1a1"></path><path id="Path_317" data-name="Path 317" d="M43.55,30.431V5.784a2.216,2.216,0,0,1,2.3-2.3h4.721c4.594,0,6.852,2.548,6.852,7.228V25.5c0,4.679-2.257,7.228-6.852,7.228H45.848a2.216,2.216,0,0,1-2.3-2.3m6.935-1.88c1.462,0,2.34-.752,2.34-2.841V10.5c0-2.089-.877-2.841-2.34-2.841h-2.34V28.551Z" transform="translate(13.307 1.065)" fill="#a1a1a1"></path><path id="Path_318" data-name="Path 318" d="M56.543,30.43V5.783a2.216,2.216,0,0,1,2.3-2.3h8.4a2.019,2.019,0,0,1,2.089,2.089,2.019,2.019,0,0,1-2.089,2.089h-6.1v7.729h4.469a2.089,2.089,0,0,1,0,4.178H61.139V28.55h6.1a2.089,2.089,0,0,1,0,4.178h-8.4a2.216,2.216,0,0,1-2.3-2.3" transform="translate(17.277 1.065)" fill="#a1a1a1"></path><path id="Path_319" data-name="Path 319" d="M67.615,26.142a2.174,2.174,0,1,1,4.344.084c0,2.089.919,2.841,2.381,2.841s2.381-.752,2.381-2.924c0-2.423-.919-3.969-3.927-6.6-3.844-3.383-5.1-5.764-5.1-9.106,0-4.6,2.381-7.269,6.852-7.269s6.684,2.883,6.684,6.643a1.973,1.973,0,0,1-2.172,2.214,2.028,2.028,0,0,1-2.172-2.214,2.181,2.181,0,0,0-2.3-2.465c-1.46,0-2.3.794-2.3,2.8,0,2.131.963,3.676,3.97,6.308,3.844,3.383,5.055,5.722,5.055,9.357,0,4.763-2.423,7.435-6.934,7.435s-6.768-2.672-6.768-7.1" transform="translate(20.66 0.967)" fill="#a1a1a1"></path><path id="Path_320" data-name="Path 320" d="M80.127,30.739V5.59a2.3,2.3,0,0,1,4.6,0V30.739a2.3,2.3,0,1,1-4.6,0" transform="translate(24.483 1.007)" fill="#a1a1a1"></path><path id="Path_321" data-name="Path 321" d="M86.014,25.892V10.519c0-4.679,2.338-7.353,6.85-7.353s6.852,2.674,6.852,7.353V11.1a2.172,2.172,0,0,1-4.345,0v-.877c0-2.089-.919-2.883-2.381-2.883s-2.38.794-2.38,2.883v16c0,2.089.919,2.841,2.38,2.841s2.381-.752,2.381-2.841V20.5h-.46a2.089,2.089,0,1,1,0-4.178h2.507a2.216,2.216,0,0,1,2.3,2.3v7.269c0,4.678-2.34,7.352-6.852,7.352s-6.85-2.674-6.85-7.352" transform="translate(26.282 0.967)" fill="#a1a1a1"></path><path id="Path_322" data-name="Path 322" d="M98.782,30.99V6.677c0-2.089,1.17-3.383,3.008-3.383,1.964,0,2.923,1.17,3.426,3.05l3.8,14.788h.084V5.341a2.047,2.047,0,0,1,4.094,0V30.363c0,2.005-1,2.674-2.423,2.674-1.588,0-2.381-.794-2.881-2.716l-4.931-18.966h-.082V30.99a2.047,2.047,0,0,1-4.094,0" transform="translate(30.183 1.007)" fill="#a1a1a1"></path><path id="Path_323" data-name="Path 323" d="M121.5,30.585V7.567h-2.965a1.892,1.892,0,0,1-2.089-2.088,1.893,1.893,0,0,1,2.089-2.09h10.527a1.9,1.9,0,0,1,2.089,2.09,1.893,1.893,0,0,1-2.089,2.088h-2.966V30.585a2.3,2.3,0,1,1-4.6,0" transform="translate(35.58 1.036)" fill="#a1a1a1"></path><path id="Path_324" data-name="Path 324" d="M152.57,30.585V5.687a2.3,2.3,0,0,1,4.6,0V28.7h5.721a2.089,2.089,0,1,1,0,4.178h-8.019a2.217,2.217,0,0,1-2.3-2.3" transform="translate(46.618 1.036)" fill="#a1a1a1"></path><path id="Path_325" data-name="Path 325" d="M162.97,26.142a2.174,2.174,0,1,1,4.344.084c0,2.089.919,2.841,2.381,2.841s2.383-.752,2.383-2.924c0-2.423-.92-3.969-3.927-6.6-3.845-3.383-5.1-5.764-5.1-9.106,0-4.6,2.383-7.269,6.853-7.269s6.683,2.883,6.683,6.643a1.973,1.973,0,0,1-2.171,2.214,2.028,2.028,0,0,1-2.172-2.214,2.18,2.18,0,0,0-2.3-2.465c-1.462,0-2.3.794-2.3,2.8,0,2.131.96,3.676,3.968,6.308,3.844,3.383,5.055,5.722,5.055,9.357,0,4.763-2.422,7.435-6.934,7.435s-6.768-2.672-6.768-7.1" transform="translate(49.796 0.967)" fill="#a1a1a1"></path><path id="Path_326" data-name="Path 326" d="M138.147,26.85a2.16,2.16,0,0,1-2.342,2.216c-1.462,0-2.383-.794-2.383-2.881V10.226c0-2.089.92-2.883,2.383-2.883,1.417,0,2.316.756,2.371,2.7a34.518,34.518,0,0,1,2.149-5.511,7.2,7.2,0,0,0-4.52-1.37c-4.512,0-6.977,2.674-6.977,7.352V25.892c0,4.678,2.465,7.352,6.977,7.352a7.258,7.258,0,0,0,4.445-1.307,29.759,29.759,0,0,1-2.1-5.086" transform="translate(39.364 0.967)" fill="#a1a1a1"></path><path id="Path_327" data-name="Path 327" d="M140.352,28.088c-8.051-11.155,0-21.723,0-21.723s8.051,10.568,0,21.723" transform="translate(41.791 1.945)" fill="#a1a1a1"></path><path id="Path_328" data-name="Path 328" d="M145.917,3.166a7.2,7.2,0,0,0-4.521,1.37,34.513,34.513,0,0,1,2.15,5.511c.055-1.947.954-2.7,2.371-2.7,1.462,0,2.381.794,2.381,2.883V26.184c0,2.088-.919,2.881-2.381,2.881a2.16,2.16,0,0,1-2.342-2.216,29.624,29.624,0,0,1-2.1,5.086,7.262,7.262,0,0,0,4.447,1.307c4.512,0,6.977-2.674,6.977-7.352V10.518c0-4.678-2.465-7.352-6.977-7.352" transform="translate(43.204 0.967)" fill="#a1a1a1"></path></g></svg>