<svg xmlns="http://www.w3.org/2000/svg" width="95.346" height="88.538" viewBox="0 0 95.346 88.538"><g id="icon2" transform="translate(-0.616 19.644) rotate(-14)"><path id="Path_103" data-name="Path 103" d="M20.517,1.683l3.509,10.8a1.349,1.349,0,0,0,1.284.934H36.664a1.351,1.351,0,0,1,.794,2.443l-9.186,6.673a1.351,1.351,0,0,0-.49,1.51l3.508,10.8a1.35,1.35,0,0,1-2.078,1.51l-9.186-6.674a1.349,1.349,0,0,0-1.587,0L9.253,36.35a1.351,1.351,0,0,1-2.078-1.51l3.509-10.8a1.353,1.353,0,0,0-.491-1.51L1.007,15.858A1.351,1.351,0,0,1,1.8,13.415H13.155a1.352,1.352,0,0,0,1.285-.934l3.508-10.8a1.351,1.351,0,0,1,2.569,0" fill="#fff"></path><path id="Path_104" data-name="Path 104" d="M62.516.75A17.932,17.932,0,1,0,80.448,18.682,17.931,17.931,0,0,0,62.516.75m0,25.923a7.992,7.992,0,1,1,7.991-7.991,7.991,7.991,0,0,1-7.991,7.991" fill="#3f96fc"></path><path id="Path_105" data-name="Path 105" d="M62.516.75A17.932,17.932,0,1,0,80.448,18.682,17.931,17.931,0,0,0,62.516.75Zm0,25.923a7.992,7.992,0,1,1,7.991-7.991A7.991,7.991,0,0,1,62.516,26.673Z" fill="none" stroke="#fff" stroke-linecap="round" stroke-linejoin="round" stroke-width="1.5"></path><path id="Path_106" data-name="Path 106" d="M75.447,45.348H5.75a5,5,0,0,0-5,5V65.254a5,5,0,0,0,5,5h69.7a5,5,0,0,0,5-5V50.348a5,5,0,0,0-5-5M21.467,62.3a3,3,0,0,1-3,3h-9a3,3,0,0,1-3-3v-9a3,3,0,0,1,3-3h9a3,3,0,0,1,3,3Z" fill="#f38754"></path><path id="Path_107" data-name="Path 107" d="M75.447,45.348H5.75a5,5,0,0,0-5,5V65.254a5,5,0,0,0,5,5h69.7a5,5,0,0,0,5-5V50.348A5,5,0,0,0,75.447,45.348ZM21.467,62.3a3,3,0,0,1-3,3h-9a3,3,0,0,1-3-3v-9a3,3,0,0,1,3-3h9a3,3,0,0,1,3,3Z" fill="none" stroke="#fff" stroke-linecap="round" stroke-linejoin="round" stroke-width="1.5"></path></g></svg>