<svg xmlns="http://www.w3.org/2000/svg" width="23.641" height="22.643" viewBox="0 0 23.641 22.643">
  <path id="Icons" d="M12.625,1.4l2,6.163a.866.866,0,0,0,.824.6h6.48a.867.867,0,0,1,.51,1.568L17.2,13.538a.867.867,0,0,0-.315.969l2,6.163a.867.867,0,0,1-1.334.969L12.309,17.83a.869.869,0,0,0-1.019,0L6.049,21.639a.867.867,0,0,1-1.335-.969l2-6.163a.867.867,0,0,0-.315-.969L1.16,9.729a.866.866,0,0,1,.508-1.568H8.149a.868.868,0,0,0,.825-.6l2-6.163A.867.867,0,0,1,12.625,1.4Z" transform="translate(0.02 0)" fill="none" stroke="#8c8c8c" stroke-linecap="round" stroke-linejoin="round" stroke-width="1.6"/>
</svg>
