<svg xmlns="http://www.w3.org/2000/svg" width="66.155" height="68" viewBox="0 0 66.155 68">
  <g id="Illustrations" transform="translate(0 0)">
    <path id="Rectangle_4" data-name="Rectangle 4" d="M2.915,0H5.6A2.916,2.916,0,0,1,8.517,2.916V5.6A2.915,2.915,0,0,1,5.6,8.517H2.915A2.915,2.915,0,0,1,0,5.6V2.915A2.915,2.915,0,0,1,2.915,0Z" transform="translate(28.301 1.25)" fill="none" stroke="#1f7b8f" stroke-linecap="round" stroke-linejoin="round" stroke-width="2.5"/>
    <rect id="Rectangle_5" data-name="Rectangle 5" width="4.971" height="4.971" rx="0.972" transform="translate(3.55 30.072)" fill="none" stroke="#1f7b8f" stroke-linecap="round" stroke-linejoin="round" stroke-width="2.5"/>
    <rect id="Rectangle_6" data-name="Rectangle 6" width="4.971" height="4.971" rx="0.972" transform="translate(59.072 30.072)" fill="none" stroke="#1f7b8f" stroke-linecap="round" stroke-linejoin="round" stroke-width="2.5"/>
    <path id="Path_6" data-name="Path 6" d="M45.066,6.45A27.776,27.776,0,0,1,69.318,30.608" transform="translate(-7.942 -0.942)" fill="none" stroke="#1f7b8f" stroke-linecap="round" stroke-linejoin="round" stroke-width="2.5"/>
    <path id="Path_7" data-name="Path 7" d="M7.375,30.705a27.786,27.786,0,0,1,21.7-23.736" transform="translate(-1.11 -1.037)" fill="none" stroke="#1f7b8f" stroke-linecap="round" stroke-linejoin="round" stroke-width="2.5"/>
    <line id="Line_9" data-name="Line 9" x2="21.573" transform="translate(37.499 5.313)" fill="none" stroke="#1f7b8f" stroke-linecap="round" stroke-linejoin="round" stroke-width="2.5"/>
    <line id="Line_10" data-name="Line 10" x2="20.791" transform="translate(7.171 5.313)" fill="none" stroke="#1f7b8f" stroke-linecap="round" stroke-linejoin="round" stroke-width="2.5"/>
    <circle id="Ellipse_1" data-name="Ellipse 1" cx="2.961" cy="2.961" r="2.961" transform="translate(58.984 2.352)" fill="none" stroke="#1f7b8f" stroke-linecap="round" stroke-linejoin="round" stroke-width="2.5"/>
    <circle id="Ellipse_2" data-name="Ellipse 2" cx="2.961" cy="2.961" r="2.961" transform="translate(30.061 33.501)" fill="none" stroke="#1f7b8f" stroke-linecap="round" stroke-linejoin="round" stroke-width="2.5"/>
    <circle id="Ellipse_3" data-name="Ellipse 3" cx="2.961" cy="2.961" r="2.961" transform="translate(1.25 2.352)" fill="none" stroke="#1f7b8f" stroke-linecap="round" stroke-linejoin="round" stroke-width="2.5"/>
    <path id="Path_8" data-name="Path 8" d="M42.271,57.994a20.523,20.523,0,0,1,7.234-12.814,2.376,2.376,0,0,0,.63-2.935L37.884,18.07a.8.8,0,0,0-1.42,0L24.214,42.244a2.376,2.376,0,0,0,.63,2.935,20.522,20.522,0,0,1,7.234,12.814" transform="translate(-4.115 -2.97)" fill="none" stroke="#1f7b8f" stroke-linecap="round" stroke-linejoin="round" stroke-width="2.5"/>
    <rect id="Rectangle_7" data-name="Rectangle 7" width="14.536" height="3.934" rx="0.972" transform="translate(25.754 55.023)" fill="none" stroke="#1f7b8f" stroke-linecap="round" stroke-linejoin="round" stroke-width="2.5"/>
    <rect id="Rectangle_8" data-name="Rectangle 8" width="19.182" height="7.793" rx="1.944" transform="translate(23.356 58.957)" fill="none" stroke="#1f7b8f" stroke-linecap="round" stroke-linejoin="round" stroke-width="2.5"/>
    <line id="Line_11" data-name="Line 11" y1="18.83" transform="translate(33.022 14.67)" fill="none" stroke="#1f7b8f" stroke-linecap="round" stroke-linejoin="round" stroke-width="2.5"/>
  </g>
</svg>
