<svg xmlns="http://www.w3.org/2000/svg" width="22.98" height="23.601" viewBox="0 0 22.98 23.601">
  <g id="Illustrations" transform="translate(0 0)">
    <rect id="Rectangle_82" data-name="Rectangle 82" width="2.861" height="2.861" rx="0.802" transform="translate(9.886 0.8)" fill="none" stroke="#8c8c8c" stroke-linecap="round" stroke-linejoin="round" stroke-width="1.6"/>
    <rect id="Rectangle_83" data-name="Rectangle 83" width="1.669" height="1.669" rx="0.267" transform="translate(1.573 10.481)" fill="none" stroke="#8c8c8c" stroke-linecap="round" stroke-linejoin="round" stroke-width="1.6"/>
    <rect id="Rectangle_84" data-name="Rectangle 84" width="1.669" height="1.669" rx="0.267" transform="translate(20.221 10.481)" fill="none" stroke="#8c8c8c" stroke-linecap="round" stroke-linejoin="round" stroke-width="1.6"/>
    <path id="Path_210" data-name="Path 210" d="M12.849,2.23A9.33,9.33,0,0,1,21,10.344" fill="none" stroke="#8c8c8c" stroke-linecap="round" stroke-linejoin="round" stroke-width="1.6"/>
    <path id="Path_211" data-name="Path 211" d="M2.484,10.345A9.333,9.333,0,0,1,9.773,2.372" fill="none" stroke="#8c8c8c" stroke-linecap="round" stroke-linejoin="round" stroke-width="1.6"/>
    <line id="Line_150" data-name="Line 150" x2="7.246" transform="translate(12.975 2.165)" fill="none" stroke="#8c8c8c" stroke-linecap="round" stroke-linejoin="round" stroke-width="1.6"/>
    <line id="Line_151" data-name="Line 151" x2="6.983" transform="translate(2.789 2.165)" fill="none" stroke="#8c8c8c" stroke-linecap="round" stroke-linejoin="round" stroke-width="1.6"/>
    <path id="Path_212" data-name="Path 212" d="M22.18,2.165a.995.995,0,1,1-.994-.994A.994.994,0,0,1,22.18,2.165Z" fill="none" stroke="#8c8c8c" stroke-linecap="round" stroke-linejoin="round" stroke-width="1.6"/>
    <path id="Path_213" data-name="Path 213" d="M12.466,12.627a.994.994,0,1,1-.994-.994A.994.994,0,0,1,12.466,12.627Z" fill="none" stroke="#8c8c8c" stroke-linecap="round" stroke-linejoin="round" stroke-width="1.6"/>
    <path id="Path_214" data-name="Path 214" d="M2.789,2.165a.995.995,0,1,1-.994-.994A.994.994,0,0,1,2.789,2.165Z" fill="none" stroke="#8c8c8c" stroke-linecap="round" stroke-linejoin="round" stroke-width="1.6"/>
    <path id="Path_215" data-name="Path 215" d="M13.2,18.861a6.893,6.893,0,0,1,2.43-4.3.8.8,0,0,0,.212-.986L11.723,5.452a.268.268,0,0,0-.477,0L7.131,13.571a.8.8,0,0,0,.212.986,6.893,6.893,0,0,1,2.429,4.3" fill="none" stroke="#8c8c8c" stroke-linecap="round" stroke-linejoin="round" stroke-width="1.6"/>
    <rect id="Rectangle_85" data-name="Rectangle 85" width="4.882" height="1.321" rx="0.267" transform="translate(9.03 18.862)" fill="none" stroke="#8c8c8c" stroke-linecap="round" stroke-linejoin="round" stroke-width="1.6"/>
    <path id="Rectangle_86" data-name="Rectangle 86" d="M.535,0H5.908a.535.535,0,0,1,.535.535V2.083a.534.534,0,0,1-.534.534H.535A.535.535,0,0,1,0,2.082V.535A.535.535,0,0,1,.535,0Z" transform="translate(8.225 20.183)" fill="none" stroke="#8c8c8c" stroke-linecap="round" stroke-linejoin="round" stroke-width="1.6"/>
    <line id="Line_152" data-name="Line 152" y1="6.325" transform="translate(11.471 5.307)" fill="none" stroke="#8c8c8c" stroke-linecap="round" stroke-linejoin="round" stroke-width="1.6"/>
  </g>
</svg>
