<svg xmlns="http://www.w3.org/2000/svg" width="69.522" height="73.806" viewBox="0 0 69.522 73.806"><g id="illuestion" transform="translate(0 0)"><g id="Group_37" data-name="Group 37" opacity="0.19"><g id="Group_36" data-name="Group 36"><path id="Path_89" data-name="Path 89" d="M61.637,37.995A26.264,26.264,0,1,1,35.374,11.732,26.263,26.263,0,0,1,61.637,37.995" fill="#fff"></path></g></g><path id="Path_90" data-name="Path 90" d="M5.788,10.827a32.934,32.934,0,0,0,7.5,14.28C21.4,34.2,36.246,37.085,47.343,31.963,55.933,28,61.143,19.826,63.3,10.827" fill="none" stroke="#fff" stroke-linecap="round" stroke-linejoin="round" stroke-width="1.5"></path><path id="Path_91" data-name="Path 91" d="M35.087,29.3,68.4,56.985a.962.962,0,0,1-.626,1.7l-19.233-.208a.965.965,0,0,0-.741.336L35.908,72.7a.962.962,0,0,1-1.693-.61L33.51,30.055a.962.962,0,0,1,1.577-.756" fill="#cfaeff"></path><path id="Path_92" data-name="Path 92" d="M35.087,29.3,68.4,56.985a.962.962,0,0,1-.626,1.7l-19.233-.208a.965.965,0,0,0-.741.336L35.908,72.7a.962.962,0,0,1-1.693-.61L33.51,30.055A.962.962,0,0,1,35.087,29.3Z" fill="none" stroke="#fff" stroke-linecap="round" stroke-linejoin="round" stroke-width="1.5"></path><path id="Path_93" data-name="Path 93" d="M8.911,10.827H2.666A1.916,1.916,0,0,1,.75,8.911V2.666A1.916,1.916,0,0,1,2.666.75H8.911a1.916,1.916,0,0,1,1.916,1.916V8.911a1.916,1.916,0,0,1-1.916,1.916" fill="#ffb000"></path><rect id="Rectangle_39" data-name="Rectangle 39" width="10.077" height="10.077" rx="1.916" transform="translate(0.75 0.75)" fill="none" stroke="#fff" stroke-linecap="round" stroke-linejoin="round" stroke-width="1.5"></rect><path id="Path_94" data-name="Path 94" d="M66.419,10.827H60.174a1.916,1.916,0,0,1-1.916-1.916V2.666A1.916,1.916,0,0,1,60.174.75h6.245a1.916,1.916,0,0,1,1.916,1.916V8.911a1.916,1.916,0,0,1-1.916,1.916" fill="#ffb000"></path><rect id="Rectangle_40" data-name="Rectangle 40" width="10.077" height="10.077" rx="1.916" transform="translate(58.258 0.75)" fill="none" stroke="#fff" stroke-linecap="round" stroke-linejoin="round" stroke-width="1.5"></rect><path id="Path_95" data-name="Path 95" d="M63.846,36.037a2.77,2.77,0,1,1-2.77-2.77A2.77,2.77,0,0,1,63.846,36.037Z" fill="none" stroke="#fff" stroke-linecap="round" stroke-linejoin="round" stroke-width="1.5"></path><line id="Line_75" data-name="Line 75" x2="3.92" y2="4.248" transform="translate(15.167 51.327)" fill="none" stroke="#fff" stroke-linecap="round" stroke-linejoin="round" stroke-width="1.5"></line><line id="Line_76" data-name="Line 76" y1="3.92" x2="4.248" transform="translate(15.003 51.491)" fill="none" stroke="#fff" stroke-linecap="round" stroke-linejoin="round" stroke-width="1.5"></line></g></svg>