<svg xmlns="http://www.w3.org/2000/svg" width="56.093" height="64.272" viewBox="0 0 56.093 64.272">
  <g id="Inspiration" transform="translate(0)">
    <rect id="Rectangle_3" data-name="Rectangle 3" width="18.608" height="8.697" rx="2.5" transform="translate(18.818 48.506)" fill="none" stroke="#e9652e" stroke-linecap="round" stroke-linejoin="round" stroke-width="2.5"/>
    <path id="Path_4" data-name="Path 4" d="M37.069,79.533H30.6a3.951,3.951,0,0,1-3.952-3.952V73.714H41.36v1.528A4.291,4.291,0,0,1,37.069,79.533Z" transform="translate(-5.788 -16.511)" fill="none" stroke="#e9652e" stroke-linecap="round" stroke-linejoin="round" stroke-width="2.5"/>
    <path id="Path_5" data-name="Path 5" d="M23,51.041c-.091,0-.787-2.218-.846-2.369a41.071,41.071,0,0,0-2.665-5.527C18.368,41.214,16.846,39.57,15.8,37.6a17.887,17.887,0,0,1-1.97-6.3,16.844,16.844,0,0,1,11.1-17.811c.215-.077.432-.15.65-.219,4.821-1.513,10.671-1.161,14.979,1.61,6.39,4.109,8.63,12.229,6.875,19.351-.735,2.984-2.682,5.387-4.424,7.841a22.483,22.483,0,0,0-4.081,8.977Z" transform="translate(-2.84 -2.535)" fill="none" stroke="#e9652e" stroke-linecap="round" stroke-linejoin="round" stroke-width="2.5"/>
    <line id="Line_1" data-name="Line 1" y2="4.54" transform="translate(28.02 1.25)" fill="none" stroke="#e9652e" stroke-linecap="round" stroke-linejoin="round" stroke-width="2.5"/>
    <line id="Line_2" data-name="Line 2" y2="10.281" transform="translate(28.02 37.158)" fill="none" stroke="#e9652e" stroke-linecap="round" stroke-linejoin="round" stroke-width="2.5"/>
    <line id="Line_3" data-name="Line 3" x1="3.329" y2="3.087" transform="translate(43.5 8.297)" fill="none" stroke="#e9652e" stroke-linecap="round" stroke-linejoin="round" stroke-width="2.5"/>
    <line id="Line_4" data-name="Line 4" x2="3.329" y2="3.087" transform="translate(43.914 42.899)" fill="none" stroke="#e9652e" stroke-linecap="round" stroke-linejoin="round" stroke-width="2.5"/>
    <line id="Line_5" data-name="Line 5" x2="4.54" transform="translate(50.303 27.02)" fill="none" stroke="#e9652e" stroke-linecap="round" stroke-linejoin="round" stroke-width="2.5"/>
    <line id="Line_6" data-name="Line 6" x2="3.329" y2="3.087" transform="translate(9.264 8.297)" fill="none" stroke="#e9652e" stroke-linecap="round" stroke-linejoin="round" stroke-width="2.5"/>
    <line id="Line_7" data-name="Line 7" x1="3.329" y2="3.087" transform="translate(8.85 42.899)" fill="none" stroke="#e9652e" stroke-linecap="round" stroke-linejoin="round" stroke-width="2.5"/>
    <line id="Line_8" data-name="Line 8" x1="4.54" transform="translate(1.25 27.02)" fill="none" stroke="#e9652e" stroke-linecap="round" stroke-linejoin="round" stroke-width="2.5"/>
  </g>
</svg>
