<svg xmlns="http://www.w3.org/2000/svg" width="70.675" height="82.179" viewBox="0 0 70.675 82.179"><g id="inspiretaion" transform="matrix(0.995, -0.105, 0.105, 0.995, -3.488, 3.781)"><path id="Path_84" data-name="Path 84" d="M45.1,73.214H26a2.5,2.5,0,0,1-2.5-2.5V64.451a2.5,2.5,0,0,1,2.5-2.5H45.1a2.5,2.5,0,0,1,2.5,2.5v6.263a2.5,2.5,0,0,1-2.5,2.5" transform="translate(0)" fill="#edcc40"></path><rect id="Rectangle_36" data-name="Rectangle 36" width="24.099" height="11.263" rx="2.5" transform="translate(23.502 61.951)" fill="none" stroke="#fff" stroke-linecap="round" stroke-linejoin="round" stroke-width="1.5"></rect><path id="Path_85" data-name="Path 85" d="M39.643,80.75H31.27a5.117,5.117,0,0,1-5.118-5.118V73.214H45.2v1.979a5.557,5.557,0,0,1-5.557,5.557" transform="translate(0)" fill="#edcc40"></path><path id="Path_86" data-name="Path 86" d="M39.643,80.75H31.27a5.117,5.117,0,0,1-5.118-5.118V73.214H45.2v1.979A5.557,5.557,0,0,1,39.643,80.75Z" transform="translate(0)" fill="none" stroke="#fff" stroke-linecap="round" stroke-linejoin="round" stroke-width="1.5"></path><path id="Path_87" data-name="Path 87" d="M25.241,61.951c-.118,0-1.019-2.873-1.1-3.068a53.191,53.191,0,0,0-3.451-7.158c-1.453-2.5-3.424-4.631-4.781-7.186a23.165,23.165,0,0,1-2.551-8.165,21.814,21.814,0,0,1,14.37-23.067c.279-.1.559-.194.842-.283,6.244-1.96,13.82-1.5,19.4,2.085,8.275,5.321,11.176,15.837,8.9,25.061-.952,3.865-3.474,6.976-5.73,10.155a29.118,29.118,0,0,0-5.285,11.626Z" transform="translate(0)" fill="#f4cb00"></path><path id="Path_88" data-name="Path 88" d="M25.241,61.951c-.118,0-1.019-2.873-1.1-3.068a53.191,53.191,0,0,0-3.451-7.158c-1.453-2.5-3.424-4.631-4.781-7.186a23.165,23.165,0,0,1-2.551-8.165,21.814,21.814,0,0,1,14.37-23.067c.279-.1.559-.194.842-.283,6.244-1.96,13.82-1.5,19.4,2.085,8.275,5.321,11.176,15.837,8.9,25.061-.952,3.865-3.474,6.976-5.73,10.155a29.118,29.118,0,0,0-5.285,11.626Z" transform="translate(0)" fill="none" stroke="#fff" stroke-linecap="round" stroke-linejoin="round" stroke-width="1.5"></path><line id="Line_67" data-name="Line 67" y2="5.88" transform="translate(35.419 0.75)" fill="none" stroke="#fff" stroke-linecap="round" stroke-linejoin="round" stroke-width="1.5"></line><line id="Line_68" data-name="Line 68" y2="13.315" transform="translate(35.419 48.032)" fill="none" stroke="#fff" stroke-linecap="round" stroke-linejoin="round" stroke-width="1.5"></line><line id="Line_69" data-name="Line 69" x1="4.311" y2="3.998" transform="translate(55.468 9.876)" fill="none" stroke="#fff" stroke-linecap="round" stroke-linejoin="round" stroke-width="1.5"></line><line id="Line_70" data-name="Line 70" x2="4.311" y2="3.998" transform="translate(56.003 54.689)" fill="none" stroke="#fff" stroke-linecap="round" stroke-linejoin="round" stroke-width="1.5"></line><line id="Line_71" data-name="Line 71" x2="5.88" transform="translate(64.277 34.125)" fill="none" stroke="#fff" stroke-linecap="round" stroke-linejoin="round" stroke-width="1.5"></line><line id="Line_72" data-name="Line 72" x2="4.311" y2="3.998" transform="translate(11.128 9.876)" fill="none" stroke="#fff" stroke-linecap="round" stroke-linejoin="round" stroke-width="1.5"></line><line id="Line_73" data-name="Line 73" x1="4.311" y2="3.998" transform="translate(10.593 54.689)" fill="none" stroke="#fff" stroke-linecap="round" stroke-linejoin="round" stroke-width="1.5"></line><line id="Line_74" data-name="Line 74" x1="5.88" transform="translate(0.75 34.125)" fill="none" stroke="#fff" stroke-linecap="round" stroke-linejoin="round" stroke-width="1.5"></line></g></svg>