<svg xmlns="http://www.w3.org/2000/svg" width="20.318" height="23.6" viewBox="0 0 20.318 23.6">
  <g id="Inspiration" transform="translate(0)">
    <rect id="Rectangle_81" data-name="Rectangle 81" width="6.499" height="3.037" rx="0.674" transform="translate(6.936 17.731)" fill="none" stroke="#8c8c8c" stroke-linecap="round" stroke-linejoin="round" stroke-width="1.6"/>
    <path id="Path_208" data-name="Path 208" d="M11.289,22.8H9.031a1.38,1.38,0,0,1-1.38-1.38v-.652h5.137V21.3A1.5,1.5,0,0,1,11.289,22.8Z" fill="none" stroke="#8c8c8c" stroke-linecap="round" stroke-linejoin="round" stroke-width="1.6"/>
    <path id="Path_209" data-name="Path 209" d="M7.405,17.73c-.032,0-.275-.775-.3-.827a14.226,14.226,0,0,0-.93-1.931c-.392-.674-.924-1.249-1.29-1.938a6.272,6.272,0,0,1-.688-2.2,5.883,5.883,0,0,1,3.876-6.22c.075-.027.151-.053.227-.077a6.413,6.413,0,0,1,5.232.562,6.226,6.226,0,0,1,2.4,6.759A8.381,8.381,0,0,1,14.391,14.6a7.868,7.868,0,0,0-1.425,3.135Z" fill="none" stroke="#8c8c8c" stroke-linecap="round" stroke-linejoin="round" stroke-width="1.6"/>
    <line id="Line_142" data-name="Line 142" y2="1.586" transform="translate(10.15 0.8)" fill="none" stroke="#8c8c8c" stroke-linecap="round" stroke-linejoin="round" stroke-width="1.6"/>
    <line id="Line_143" data-name="Line 143" y2="3.591" transform="translate(10.15 13.767)" fill="none" stroke="#8c8c8c" stroke-linecap="round" stroke-linejoin="round" stroke-width="1.6"/>
    <line id="Line_144" data-name="Line 144" x1="1.163" y2="1.078" transform="translate(15.556 3.687)" fill="none" stroke="#8c8c8c" stroke-linecap="round" stroke-linejoin="round" stroke-width="1.6"/>
    <line id="Line_145" data-name="Line 145" x2="1.163" y2="1.078" transform="translate(15.701 15.772)" fill="none" stroke="#8c8c8c" stroke-linecap="round" stroke-linejoin="round" stroke-width="1.6"/>
    <line id="Line_146" data-name="Line 146" x2="1.586" transform="translate(17.932 10.226)" fill="none" stroke="#8c8c8c" stroke-linecap="round" stroke-linejoin="round" stroke-width="1.6"/>
    <line id="Line_147" data-name="Line 147" x2="1.163" y2="1.078" transform="translate(3.599 3.687)" fill="none" stroke="#8c8c8c" stroke-linecap="round" stroke-linejoin="round" stroke-width="1.6"/>
    <line id="Line_148" data-name="Line 148" x1="1.163" y2="1.078" transform="translate(3.454 15.772)" fill="none" stroke="#8c8c8c" stroke-linecap="round" stroke-linejoin="round" stroke-width="1.6"/>
    <line id="Line_149" data-name="Line 149" x1="1.586" transform="translate(0.8 10.226)" fill="none" stroke="#8c8c8c" stroke-linecap="round" stroke-linejoin="round" stroke-width="1.6"/>
  </g>
</svg>
