<svg xmlns="http://www.w3.org/2000/svg" width="23.6" height="16.558" viewBox="0 0 23.6 16.558">
  <g id="Learning" transform="translate(0 0.092)">
    <path id="Path_224" data-name="Path 224" d="M11.722,15.116a16.1,16.1,0,0,0-9.812.477A.823.823,0,0,1,.8,14.82V2.695a.825.825,0,0,1,.825-.825H2.833" fill="none" stroke="#8c8c8c" stroke-linecap="round" stroke-linejoin="round" stroke-width="1.6"/>
    <path id="Path_225" data-name="Path 225" d="M11.8,15.12a16.326,16.326,0,0,1,9.893.484.823.823,0,0,0,1.107-.775V2.695a.825.825,0,0,0-.825-.825H20.767" fill="none" stroke="#8c8c8c" stroke-linecap="round" stroke-linejoin="round" stroke-width="1.6"/>
    <path id="Path_226" data-name="Path 226" d="M11.726,2.652C9.291-.05,2.89,1,2.89,1V12.534a.823.823,0,0,0,.9.822c1.85-.176,6.065-.317,7.936,1.76" fill="none" stroke="#8c8c8c" stroke-linecap="round" stroke-linejoin="round" stroke-width="1.6"/>
    <path id="Path_227" data-name="Path 227" d="M11.8,2.652C14.235-.05,20.718,1,20.718,1V12.535a.823.823,0,0,1-.9.822c-1.867-.177-6.143-.322-8.015,1.759" fill="none" stroke="#8c8c8c" stroke-linecap="round" stroke-linejoin="round" stroke-width="1.6"/>
    <line id="Line_164" data-name="Line 164" y2="12.394" transform="translate(11.804 2.652)" fill="none" stroke="#8c8c8c" stroke-linecap="round" stroke-linejoin="round" stroke-width="1.389"/>
    <path id="Path_228" data-name="Path 228" d="M9.651,7.21a4.911,4.911,0,0,0-4.737-.574" fill="none" stroke="#8c8c8c" stroke-linecap="round" stroke-linejoin="round" stroke-width="1.6"/>
    <path id="Path_229" data-name="Path 229" d="M9.651,9.9a4.911,4.911,0,0,0-4.737-.574" fill="none" stroke="#8c8c8c" stroke-linecap="round" stroke-linejoin="round" stroke-width="1.6"/>
    <path id="Path_230" data-name="Path 230" d="M18.757,6.636a4.912,4.912,0,0,0-4.737.574" fill="none" stroke="#8c8c8c" stroke-linecap="round" stroke-linejoin="round" stroke-width="1.6"/>
    <path id="Path_231" data-name="Path 231" d="M9.651,4.777A4.911,4.911,0,0,0,4.914,4.2" fill="none" stroke="#8c8c8c" stroke-linecap="round" stroke-linejoin="round" stroke-width="1.6"/>
    <path id="Path_232" data-name="Path 232" d="M18.757,4.2a4.912,4.912,0,0,0-4.737.574" fill="none" stroke="#8c8c8c" stroke-linecap="round" stroke-linejoin="round" stroke-width="1.389"/>
    <path id="Path_233" data-name="Path 233" d="M18.757,9.334a4.912,4.912,0,0,0-4.737.574" fill="none" stroke="#8c8c8c" stroke-linecap="round" stroke-linejoin="round" stroke-width="1.6"/>
  </g>
</svg>
