<svg xmlns="http://www.w3.org/2000/svg" xmlns:xlink="http://www.w3.org/1999/xlink" width="82.5" height="56.521" viewBox="0 0 82.5 56.521">
  <defs>
    <clipPath id="clip-path">
      <rect id="Rectangle_24" data-name="Rectangle 24" width="82.5" height="56.521" transform="translate(0 0)" fill="none"/>
    </clipPath>
  </defs>
  <g id="Learning" transform="translate(0 0)">
    <g id="Group_21" data-name="Group 21" clip-path="url(#clip-path)">
      <path id="Path_45" data-name="Path 45" d="M40.966,53.307a58.528,58.528,0,0,0-35.68,1.736A2.994,2.994,0,0,1,1.25,52.229V8.14a3,3,0,0,1,3-3H8.641M41.25,53.322a59.372,59.372,0,0,1,35.974,1.761,2.994,2.994,0,0,0,4.026-2.819V8.14a3,3,0,0,0-3-3H73.859M40.981,7.984c-8.854-9.824-32.131-6-32.131-6V43.92a2.993,2.993,0,0,0,3.272,2.987c6.729-.64,22.054-1.151,28.859,6.4m.284-45.323c8.839-9.824,32.415-6,32.415-6V43.924a2.993,2.993,0,0,1-3.27,2.987c-6.787-.642-22.337-1.171-29.145,6.4m0-45.323V53.053M34.322,24.744a20.581,20.581,0,0,0-19.843-2.4M34.322,36.032a20.581,20.581,0,0,0-19.843-2.4m53.8-11.288a20.581,20.581,0,0,0-19.843,2.4M34.322,14.552a20.581,20.581,0,0,0-19.843-2.4m53.8,0a20.581,20.581,0,0,0-19.843,2.4M68.275,33.643a20.581,20.581,0,0,0-19.843,2.4" fill="none" stroke="#706e25" stroke-linecap="round" stroke-linejoin="round" stroke-width="2.5"/>
    </g>
  </g>
</svg>
