<svg xmlns="http://www.w3.org/2000/svg" width="76.145" height="76.145" viewBox="0 0 76.145 76.145"><g id="mockup" transform="translate(0.149 9.495) rotate(-8)"><path id="Path_108" data-name="Path 108" d="M61.724,66.668H5.694A4.944,4.944,0,0,1,.75,61.724V5.694A4.944,4.944,0,0,1,5.694.75h56.03a4.944,4.944,0,0,1,4.944,4.944v56.03a4.944,4.944,0,0,1-4.944,4.944" transform="translate(-0.132 -0.132)" fill="#ffd899"></path><rect id="Rectangle_50" data-name="Rectangle 50" width="65.918" height="65.918" rx="6" transform="translate(0.618 0.618)" fill="none" stroke="#fff" stroke-linecap="round" stroke-linejoin="round" stroke-width="1.5"></rect><path id="Path_109" data-name="Path 109" d="M11.519,8.678A2.235,2.235,0,1,1,9.283,6.443a2.236,2.236,0,0,1,2.235,2.235" transform="translate(-1.241 -1.134)" fill="#e4effc"></path><circle id="Ellipse_13" data-name="Ellipse 13" cx="2.235" cy="2.235" r="2.235" transform="translate(5.808 5.309)" fill="none" stroke="#4c241d" stroke-linecap="round" stroke-linejoin="round" stroke-width="1.5"></circle><path id="Path_110" data-name="Path 110" d="M20.014,8.678a2.235,2.235,0,1,1-2.235-2.235,2.236,2.236,0,0,1,2.235,2.235" transform="translate(-2.736 -1.134)" fill="#e4effc"></path><circle id="Ellipse_14" data-name="Ellipse 14" cx="2.235" cy="2.235" r="2.235" transform="translate(12.807 5.309)" fill="none" stroke="#4c241d" stroke-linecap="round" stroke-linejoin="round" stroke-width="1.5"></circle><path id="Path_111" data-name="Path 111" d="M28.509,8.678a2.235,2.235,0,1,1-2.235-2.235,2.236,2.236,0,0,1,2.235,2.235" transform="translate(-4.231 -1.134)" fill="#e4effc"></path><circle id="Ellipse_15" data-name="Ellipse 15" cx="2.235" cy="2.235" r="2.235" transform="translate(19.807 5.309)" fill="none" stroke="#4c241d" stroke-linecap="round" stroke-linejoin="round" stroke-width="1.5"></circle><line id="Line_81" data-name="Line 81" x2="65.918" transform="translate(0.618 13.83)" fill="none" stroke="#fff" stroke-linecap="round" stroke-linejoin="round" stroke-width="1.5"></line><path id="Path_112" data-name="Path 112" d="M30.388,52.925H9.582a2.533,2.533,0,0,1-2.533-2.533V29.7a2.533,2.533,0,0,1,2.533-2.534H32.9A2.533,2.533,0,0,1,35.434,29.7V43.255" transform="translate(-1.241 -4.782)" fill="#a6adff"></path><line id="Line_82" data-name="Line 82" x1="2.111" transform="translate(27.036 48.144)" fill="none" stroke="#4c241d" stroke-linecap="round" stroke-linejoin="round" stroke-width="1.5"></line><path id="Path_113" data-name="Path 113" d="M24.178,52.925H9.581a2.533,2.533,0,0,1-2.533-2.533V29.7a2.533,2.533,0,0,1,2.533-2.534H32.9A2.533,2.533,0,0,1,35.434,29.7V39.1" transform="translate(-1.241 -4.782)" fill="none" stroke="#4c241d" stroke-linecap="round" stroke-linejoin="round" stroke-width="1.5" stroke-dasharray="4.974 4.974"></path><line id="Line_83" data-name="Line 83" y2="2.111" transform="translate(34.193 36.362)" fill="none" stroke="#4c241d" stroke-linecap="round" stroke-linejoin="round" stroke-width="1.5"></line><path id="Path_114" data-name="Path 114" d="M35.461,45.108l19.975,7.466a2.533,2.533,0,0,1-.078,4.773l-7.1,2.392A2.534,2.534,0,0,0,46.7,61.217L44.1,67.881a2.533,2.533,0,0,1-4.736-.048L32.2,48.355a2.533,2.533,0,0,1,3.264-3.247" transform="translate(-5.639 -7.911)" fill="#f4a9ff"></path><path id="Path_115" data-name="Path 115" d="M35.461,45.108l19.975,7.466a2.533,2.533,0,0,1-.078,4.773l-7.1,2.392A2.534,2.534,0,0,0,46.7,61.217L44.1,67.881a2.533,2.533,0,0,1-4.736-.048L32.2,48.355A2.533,2.533,0,0,1,35.461,45.108Z" transform="translate(-5.639 -7.911)" fill="none" stroke="#4c241d" stroke-linecap="round" stroke-linejoin="round" stroke-width="1.5"></path><line id="Line_84" data-name="Line 84" x2="23.251" transform="translate(38.92 23.106)" fill="none" stroke="#4c241d" stroke-linecap="round" stroke-linejoin="round" stroke-width="1.5"></line><line id="Line_85" data-name="Line 85" x2="23.251" transform="translate(38.92 27.707)" fill="none" stroke="#4c241d" stroke-linecap="round" stroke-linejoin="round" stroke-width="1.5"></line><line id="Line_86" data-name="Line 86" x2="19.824" transform="translate(38.92 32.309)" fill="none" stroke="#4c241d" stroke-linecap="round" stroke-linejoin="round" stroke-width="1.5"></line></g></svg>