<svg id="Mockups" xmlns="http://www.w3.org/2000/svg" width="21.248" height="21.248" viewBox="0 0 21.248 21.248">
  <rect id="Rectangle_87" data-name="Rectangle 87" width="19.648" height="19.648" rx="1.65" transform="translate(0.8 0.8)" fill="none" stroke="#8c8c8c" stroke-linecap="round" stroke-linejoin="round" stroke-width="1.6"/>
  <path id="Path_216" data-name="Path 216" d="M3.864,3.032A.666.666,0,1,1,3.2,2.366a.666.666,0,0,1,.666.666" transform="translate(-0.185 -0.167)" fill="#8c8c8c"/>
  <path id="Path_217" data-name="Path 217" d="M6.75,3.032a.666.666,0,1,1-.666-.666.666.666,0,0,1,.666.666" transform="translate(-0.494 -0.167)" fill="#8c8c8c"/>
  <path id="Path_218" data-name="Path 218" d="M9.636,3.032a.666.666,0,1,1-.666-.666.666.666,0,0,1,.666.666" transform="translate(-0.802 -0.167)" fill="#8c8c8c"/>
  <line id="Line_153" data-name="Line 153" x2="19.648" transform="translate(0.8 4.738)" fill="none" stroke="#8c8c8c" stroke-linecap="round" stroke-linejoin="round" stroke-width="1.6"/>
  <line id="Line_154" data-name="Line 154" x1="0.804" transform="translate(7.891 14.673)" fill="none" stroke="#8c8c8c" stroke-linecap="round" stroke-linejoin="round" stroke-width="1.6"/>
  <path id="Path_219" data-name="Path 219" d="M6.521,15.562H3.727a.634.634,0,0,1-.634-.634V9.744a.634.634,0,0,1,.634-.635H9.569a.635.635,0,0,1,.635.635v1.783" transform="translate(-0.245 -0.888)" fill="none" stroke="#8c8c8c" stroke-linecap="round" stroke-linejoin="round" stroke-width="1.6" stroke-dasharray="1.808 1.808"/>
  <line id="Line_155" data-name="Line 155" y2="0.804" transform="translate(9.959 11.446)" fill="none" stroke="#8c8c8c" stroke-linecap="round" stroke-linejoin="round" stroke-width="1.6"/>
  <path id="Path_220" data-name="Path 220" d="M9.726,13.258l5,1.87a.635.635,0,0,1-.02,1.2l-1.78.6a.636.636,0,0,0-.388.371l-.652,1.669a.635.635,0,0,1-1.187-.013l-1.8-4.879A.635.635,0,0,1,9.726,13.258Z" transform="translate(-0.863 -1.327)" fill="none" stroke="#8c8c8c" stroke-linecap="round" stroke-linejoin="round" stroke-width="1.6"/>
  <line id="Line_156" data-name="Line 156" x2="6.321" transform="translate(12.079 8.22)" fill="none" stroke="#8c8c8c" stroke-linecap="round" stroke-linejoin="round" stroke-width="1.6"/>
  <line id="Line_157" data-name="Line 157" x2="4.757" transform="translate(12.079 10.963)" fill="none" stroke="#8c8c8c" stroke-linecap="round" stroke-linejoin="round" stroke-width="1.6"/>
</svg>
