<svg xmlns="http://www.w3.org/2000/svg" width="72.333" height="67.631" viewBox="0 0 72.333 67.631"><g id="photos" transform="matrix(0.966, 0.259, -0.259, 0.966, 14.068, 0.241)"><path id="Path_190" data-name="Path 190" d="M55.293,53.065H5.172A4.422,4.422,0,0,1,.75,48.642V5.172A4.422,4.422,0,0,1,5.172.75H55.293a4.422,4.422,0,0,1,4.422,4.422v43.47a4.422,4.422,0,0,1-4.422,4.422" transform="translate(-0.197 -0.197)" fill="#82f9cb"></path><rect id="Rectangle_63" data-name="Rectangle 63" width="58.965" height="52.315" rx="6" transform="translate(0.553 0.553)" fill="none" stroke="#fff" stroke-linecap="round" stroke-linejoin="round" stroke-width="1.5"></rect><path id="Path_191" data-name="Path 191" d="M.75,52.462,25.311,35.479a1.847,1.847,0,0,1,2.39.248L35.653,44.1a1.846,1.846,0,0,0,2.537.133L45.029,38.4a1.847,1.847,0,0,1,2.386-.009l12.3,10.326v8.97a4.422,4.422,0,0,1-4.422,4.422H5.172A4.422,4.422,0,0,1,.75,57.688Z" transform="translate(-0.197 -9.242)" fill="#7751fe"></path><path id="Path_192" data-name="Path 192" d="M.75,52.462,25.311,35.479a1.847,1.847,0,0,1,2.39.248L35.653,44.1a1.846,1.846,0,0,0,2.537.133L45.029,38.4a1.847,1.847,0,0,1,2.386-.009l12.3,10.326v8.97a4.422,4.422,0,0,1-4.422,4.422H5.172A4.422,4.422,0,0,1,.75,57.688Z" transform="translate(-0.197 -9.242)" fill="none" stroke="#fff" stroke-linecap="round" stroke-linejoin="round" stroke-width="1.5"></path><path id="Path_193" data-name="Path 193" d="M58.687,18.624a4.975,4.975,0,1,1-4.975-4.975,4.975,4.975,0,0,1,4.975,4.975" transform="translate(-12.815 -3.589)" fill="#f5e165"></path><circle id="Ellipse_19" data-name="Ellipse 19" cx="4.975" cy="4.975" r="4.975" transform="translate(35.922 10.06)" fill="none" stroke="#4c241d" stroke-linecap="round" stroke-linejoin="round" stroke-width="1.5"></circle></g></svg>