<svg xmlns="http://www.w3.org/2000/svg" width="23.924" height="22.1" viewBox="0 0 23.924 22.1">
  <g id="Podcasts" transform="translate(0.162 0.024)">
    <path id="Path_236" data-name="Path 236" d="M11.8,14.087h0a4.4,4.4,0,0,1-4.4-4.4V5.2a4.4,4.4,0,1,1,8.792,0V9.691A4.4,4.4,0,0,1,11.8,14.087Z" fill="none" stroke="#8c8c8c" stroke-linecap="round" stroke-linejoin="round" stroke-width="1.6"/>
    <path id="Path_237" data-name="Path 237" d="M18.354,12.446a7.62,7.62,0,0,1-13.109,0" fill="none" stroke="#8c8c8c" stroke-linecap="round" stroke-linejoin="round" stroke-width="1.6"/>
    <line id="Line_169" data-name="Line 169" y2="5.097" transform="translate(11.8 16.179)" fill="none" stroke="#8c8c8c" stroke-linecap="round" stroke-linejoin="round" stroke-width="1.6"/>
    <line id="Line_170" data-name="Line 170" x2="7.618" transform="translate(7.991 21.276)" fill="none" stroke="#8c8c8c" stroke-linecap="round" stroke-linejoin="round" stroke-width="1.6"/>
    <path id="Path_238" data-name="Path 238" d="M1.974,1.1a6.742,6.742,0,0,0,0,7.568" fill="none" stroke="#8c8c8c" stroke-linecap="round" stroke-linejoin="round" stroke-width="1.6"/>
    <path id="Path_239" data-name="Path 239" d="M4.611,2.777a3.745,3.745,0,0,0,0,4.2" fill="none" stroke="#8c8c8c" stroke-linecap="round" stroke-linejoin="round" stroke-width="1.6"/>
    <path id="Path_240" data-name="Path 240" d="M21.626,1.1a6.742,6.742,0,0,1,0,7.568" fill="none" stroke="#8c8c8c" stroke-linecap="round" stroke-linejoin="round" stroke-width="1.6"/>
    <path id="Path_241" data-name="Path 241" d="M18.989,2.777a3.745,3.745,0,0,1,0,4.2" fill="none" stroke="#8c8c8c" stroke-linecap="round" stroke-linejoin="round" stroke-width="1.6"/>
  </g>
</svg>
