<svg xmlns="http://www.w3.org/2000/svg" xmlns:xlink="http://www.w3.org/1999/xlink" width="76.068" height="70.958" viewBox="0 0 76.068 70.958">
  <defs>
    <clipPath id="clip-path">
      <rect id="Rectangle_34" data-name="Rectangle 34" width="76.068" height="70.958" fill="none"/>
    </clipPath>
  </defs>
  <g id="Podcasts" transform="translate(0 0)">
    <g id="Group_31" data-name="Group 31" transform="translate(0 0)" clip-path="url(#clip-path)">
      <path id="Path_71" data-name="Path 71" d="M40,45.8h0A14.739,14.739,0,0,1,25.265,31.061V15.989a14.739,14.739,0,1,1,29.478,0V31.061A14.739,14.739,0,0,1,40,45.8Z" transform="translate(-1.97 -0.098)" fill="none" stroke="#a04295" stroke-linecap="round" stroke-linejoin="round" stroke-width="2.5"/>
      <path id="Path_72" data-name="Path 72" d="M61.368,43.6a25.549,25.549,0,0,1-43.952,0" transform="translate(-1.358 -3.399)" fill="none" stroke="#a04295" stroke-linecap="round" stroke-linejoin="round" stroke-width="2.5"/>
      <line id="Line_65" data-name="Line 65" y2="17.089" transform="translate(38.034 52.716)" fill="none" stroke="#a04295" stroke-linecap="round" stroke-linejoin="round" stroke-width="2.5"/>
      <line id="Line_66" data-name="Line 66" x2="25.541" transform="translate(25.264 69.806)" fill="none" stroke="#a04295" stroke-linecap="round" stroke-linejoin="round" stroke-width="2.5"/>
      <path id="Path_73" data-name="Path 73" d="M5.185,2.325a22.6,22.6,0,0,0,0,25.374" transform="translate(-0.097 -0.182)" fill="none" stroke="#a04295" stroke-linecap="round" stroke-linejoin="round" stroke-width="2.5"/>
      <path id="Path_74" data-name="Path 74" d="M12.113,5.049a18.128,18.128,0,0,0,0,20.349" transform="translate(-0.698 -0.394)" fill="none" stroke="#a04295" stroke-linecap="round" stroke-linejoin="round" stroke-width="2.5"/>
      <path id="Path_75" data-name="Path 75" d="M18.309,8.44a12.558,12.558,0,0,0,0,14.1" transform="translate(-1.257 -0.658)" fill="none" stroke="#a04295" stroke-linecap="round" stroke-linejoin="round" stroke-width="2.5"/>
      <path id="Path_76" data-name="Path 76" d="M76.982,2.325a22.6,22.6,0,0,1,0,25.374" transform="translate(-6.002 -0.182)" fill="none" stroke="#a04295" stroke-linecap="round" stroke-linejoin="round" stroke-width="2.5"/>
      <path id="Path_77" data-name="Path 77" d="M70.12,5.049a18.128,18.128,0,0,1,0,20.349" transform="translate(-5.467 -0.394)" fill="none" stroke="#a04295" stroke-linecap="round" stroke-linejoin="round" stroke-width="2.5"/>
      <path id="Path_78" data-name="Path 78" d="M64.006,8.44a12.558,12.558,0,0,1,0,14.1" transform="translate(-4.99 -0.658)" fill="none" stroke="#a04295" stroke-linecap="round" stroke-linejoin="round" stroke-width="2.5"/>
    </g>
  </g>
</svg>
