<svg id="Projecttools" xmlns="http://www.w3.org/2000/svg" width="21.631" height="23.6" viewBox="0 0 21.631 23.6">
  <path id="Path_277" data-name="Path 277" d="M15.738,9.887V4.636h-3.4a.622.622,0,0,1-.622-.621V.8H1.424A.623.623,0,0,0,.8,1.423V18.851a.623.623,0,0,0,.624.622H8.138" fill="none" stroke="#8c8c8c" stroke-linecap="round" stroke-linejoin="round" stroke-width="1.6"/>
  <path id="Path_278" data-name="Path 278" d="M15.738,4.636h-3.4a.623.623,0,0,1-.622-.622V.8Z" fill="none" stroke="#8c8c8c" stroke-linecap="round" stroke-linejoin="round" stroke-width="1.6"/>
  <line id="Line_182" data-name="Line 182" x2="9.831" transform="translate(3.353 7.925)" fill="none" stroke="#8c8c8c" stroke-linecap="round" stroke-linejoin="round" stroke-width="1.6"/>
  <line id="Line_183" data-name="Line 183" x2="7.141" transform="translate(3.353 10.845)" fill="none" stroke="#8c8c8c" stroke-linecap="round" stroke-linejoin="round" stroke-width="1.6"/>
  <path id="Path_279" data-name="Path 279" d="M19.523,19.513a4.645,4.645,0,0,0,.314-.755h.528a.466.466,0,0,0,.466-.467V16.426a.466.466,0,0,0-.466-.467h-.528a4.645,4.645,0,0,0-.314-.755l.374-.374a.467.467,0,0,0,0-.66l-1.319-1.319a.467.467,0,0,0-.66,0l-.374.374a4.553,4.553,0,0,0-.755-.313v-.529a.467.467,0,0,0-.467-.466H14.457a.467.467,0,0,0-.467.466v.529a4.553,4.553,0,0,0-.755.313l-.374-.374a.466.466,0,0,0-.66,0L10.882,14.17a.467.467,0,0,0,0,.66l.374.374a4.553,4.553,0,0,0-.313.755h-.529a.467.467,0,0,0-.466.467v1.866a.466.466,0,0,0,.466.466h.529a4.553,4.553,0,0,0,.313.755l-.374.374a.467.467,0,0,0,0,.66L12.2,21.866a.466.466,0,0,0,.66,0l.374-.374a4.645,4.645,0,0,0,.755.314v.528a.466.466,0,0,0,.467.466h1.865a.466.466,0,0,0,.467-.466v-.528a4.645,4.645,0,0,0,.755-.314l.374.374a.467.467,0,0,0,.66,0L19.9,20.547a.467.467,0,0,0,0-.66Z" fill="none" stroke="#8c8c8c" stroke-linecap="round" stroke-linejoin="round" stroke-width="1.6"/>
  <path id="Path_280" data-name="Path 280" d="M15.39,19.417a2.058,2.058,0,1,1,2.058-2.058A2.06,2.06,0,0,1,15.39,19.417Z" fill="none" stroke="#8c8c8c" stroke-linecap="round" stroke-linejoin="round" stroke-width="1.6"/>
</svg>
