<svg fill="none" height="160" viewBox="0 0 432 160" width="432" xmlns="http://www.w3.org/2000/svg"><path d="m0 0h432v160h-432z" fill="#f4ede4"/><path clip-rule="evenodd" d="m203.755 60.2672c1.098.7413 2.391 1.1406 3.716 1.1477h6.743v-6.7075c0-1.3251-.392-2.6205-1.128-3.7228-.735-1.1022-1.78-1.9619-3.004-2.4706s-2.57-.6436-3.871-.3877c-1.3.256-2.495.8913-3.434 1.8258-.94.9345-1.581 2.1263-1.844 3.4251-.263 1.2987-.135 2.6463.367 3.8725s1.356 2.2762 2.455 3.0175zm8.301 6.5442c-1.206-1.2502-2.849-1.984-4.585-2.0472h-16.764c-1.735.0632-3.379.797-4.584 2.0472-1.206 1.2501-1.879 2.9191-1.879 4.6558s.673 3.4057 1.879 4.6558c1.205 1.2502 2.849 1.984 4.584 2.0472h16.764c1.736-.0632 3.379-.797 4.585-2.0472 1.205-1.2501 1.879-2.9191 1.879-4.6558s-.674-3.4057-1.879-4.6558zm-15.771 25.1508c.737-1.103 1.13-2.3998 1.13-3.7265v-6.7074h-6.708c-1.326 0-2.623.3933-3.726 1.1304-1.103.737-1.963 1.7846-2.47 3.0102-.508 1.2256-.641 2.5743-.382 3.8754s.898 2.4963 1.836 3.4343c.938.9381 2.133 1.5769 3.434 1.8357s2.65.126 3.875-.3817c1.226-.5076 2.274-1.3674 3.011-2.4704zm6.449-8.4819c-1.261 1.2612-1.97 2.9718-1.97 4.7554l.045 16.7463c.063 1.736.797 3.379 2.047 4.585 1.25 1.205 2.919 1.879 4.656 1.879 1.736 0 3.405-.674 4.656-1.879 1.25-1.206 1.984-2.849 2.047-4.585v-16.7463c0-1.7836-.709-3.4942-1.97-4.7554-1.261-1.2613-2.972-1.9698-4.755-1.9698-1.784 0-3.495.7085-4.756 1.9698zm31.541-12.0089c-.002-1.3269.39-2.6246 1.126-3.7288.736-1.1043 1.783-1.9653 3.008-2.4744 1.225-.509 2.574-.6431 3.876-.3853s2.498.8959 3.437 1.8336 1.578 2.1329 1.838 3.4342c.259 1.3014.127 2.6505-.38 3.8766-.508 1.2262-1.367 2.2743-2.471 3.0117-1.103.7374-2.4 1.131-3.727 1.131h-6.707zm-3.35 0c-.063 1.7356-.797 3.3789-2.047 4.5844s-2.919 1.8791-4.656 1.8791c-1.736 0-3.405-.6736-4.656-1.8791-1.25-1.2055-1.984-2.8488-2.047-4.5844v-16.7642c.063-1.7355.797-3.3789 2.047-4.5844 1.251-1.2054 2.92-1.879 4.656-1.879 1.737 0 3.406.6736 4.656 1.879 1.25 1.2055 1.984 2.8489 2.047 4.5844zm-2.972 27.9337c-1.103-.7371-2.399-1.1305-3.726-1.1305h-6.708v6.7074c0 1.327.394 2.624 1.131 3.727s1.784 1.962 3.01 2.47 2.574.641 3.875.382c1.302-.259 2.497-.898 3.435-1.836s1.577-2.133 1.836-3.434c.258-1.301.125-2.65-.382-3.876-.508-1.225-1.368-2.273-2.471-3.0099zm-6.367-4.9181c.842.322 1.74.4711 2.641.4383h16.755c1.736-.0631 3.379-.797 4.585-2.0472 1.205-1.2501 1.879-2.9191 1.879-4.6558s-.674-3.4056-1.879-4.6558c-1.206-1.2502-2.849-1.984-4.585-2.0472h-16.755c-.901-.0328-1.799.1163-2.641.4384-.842.322-1.61.8105-2.259 1.4362s-1.165 1.3757-1.517 2.2053c-.353.8296-.535 1.7217-.535 2.6231s.182 1.7935.535 2.6231c.352.8296.868 1.5797 1.517 2.2053.649.6257 1.417 1.1142 2.259 1.4363z" fill="#000" fill-rule="evenodd"/></svg>