<svg fill="none" height="160" viewBox="0 0 432 160" width="432" xmlns="http://www.w3.org/2000/svg" xmlns:xlink="http://www.w3.org/1999/xlink"><clipPath id="a"><path d="m0 0h432v160h-432z"/></clipPath><g clip-path="url(#a)"><path d="m0 0h432v160h-432z" fill="#040c19"/><path d="m216.002 113.766c18.776 0 33.998-15.1694 33.998-33.8818 0-18.7125-15.222-33.8822-33.998-33.8822-18.778 0-34 15.1676-34 33.8801 0 18.7124 15.222 33.8839 34 33.8839z" fill="#2771ee"/><path d="m214.703 78.2239c8.679-8.6504 10.472-21.5545 5.393-31.9805-10.013-1.197-20.45 2.0196-28.143 9.677-3.58 3.5562-6.315 7.8706-8.005 12.625-1.691 4.7543-2.292 9.8274-1.76 14.8452 10.531 5.3181 23.713 3.6036 32.515-5.1667z" fill="#78aeff"/><g fill="#fff"><path d="m216.005 87.2426c1.493.0023 2.927-.5888 3.985-1.6433s1.654-2.4861 1.657-3.9799c-.001-.7398-.148-1.4722-.432-2.1552-.284-.6831-.7-1.3036-1.224-1.8259-.524-.5224-1.146-.9364-1.83-1.2185s-1.417-.4268-2.156-.4256c-.74-.0014-1.473.143-2.158.425-.684.2819-1.306.6959-1.83 1.2183s-.94 1.1429-1.224 1.8262c-.285.6832-.432 1.4157-.433 2.1557.002.7399.149 1.4722.433 2.1552.285.683.701 1.3032 1.225 1.8254s1.146.936 1.83 1.2178c.684.2819 1.417.4262 2.157.4248z"/><path d="m215.967 59.2236c-12.711 0-23.044 10.3082-23.044 22.964v22.5644c2.065 1.905 4.356 3.549 6.822 4.895v-27.4594c0-8.9112 7.279-16.1669 16.222-16.1669 8.941 0 16.221 7.2557 16.221 16.1669v27.4954c2.463-1.337 4.754-2.969 6.823-4.86v-22.6354c0-12.6685-10.344-22.964-23.044-22.964z"/></g></g></svg>