<svg id="tools" xmlns="http://www.w3.org/2000/svg" xmlns:xlink="http://www.w3.org/1999/xlink" width="62.78" height="68.856" viewBox="0 0 62.78 68.856">
  <defs>
    <clipPath id="clip-path">
      <rect id="Rectangle_33" data-name="Rectangle 33" width="62.78" height="68.856" fill="none"/>
    </clipPath>
  </defs>
  <g id="Group_29" data-name="Group 29" clip-path="url(#clip-path)">
    <path id="Path_68" data-name="Path 68" d="M47.365,33.5V13.092H36.87a1.92,1.92,0,0,1-1.921-1.917V1.25H3.176A1.925,1.925,0,0,0,1.25,3.172v53.8a1.924,1.924,0,0,0,1.926,1.921H28.828" transform="translate(-0.207 -0.207)" fill="none" stroke="#385e96" stroke-linecap="round" stroke-linejoin="round" stroke-width="2.5"/>
    <path id="Path_69" data-name="Path 69" d="M54.043,13.092h-10.5a1.922,1.922,0,0,1-1.921-1.921V1.25Z" transform="translate(-6.884 -0.207)" fill="none" stroke="#385e96" stroke-linecap="round" stroke-linejoin="round" stroke-width="2.5"/>
    <line id="Line_61" data-name="Line 61" x2="33.726" transform="translate(7.238 20.663)" fill="none" stroke="#385e96" stroke-linecap="round" stroke-linejoin="round" stroke-width="2.5"/>
    <line id="Line_62" data-name="Line 62" x2="33.726" transform="translate(7.238 28.702)" fill="none" stroke="#385e96" stroke-linecap="round" stroke-linejoin="round" stroke-width="2.5"/>
    <line id="Line_63" data-name="Line 63" x2="25.59" transform="translate(7.238 36.741)" fill="none" stroke="#385e96" stroke-linecap="round" stroke-linejoin="round" stroke-width="2.5"/>
    <line id="Line_64" data-name="Line 64" x2="21.384" transform="translate(7.238 44.78)" fill="none" stroke="#385e96" stroke-linecap="round" stroke-linejoin="round" stroke-width="2.5"/>
    <path id="Path_70" data-name="Path 70" d="M64,65.59a13.246,13.246,0,0,0,.9-2.172h1.52a1.342,1.342,0,0,0,1.342-1.342V56.709a1.342,1.342,0,0,0-1.342-1.341H64.9A13.254,13.254,0,0,0,64,53.2l1.077-1.077a1.341,1.341,0,0,0,0-1.9l-3.8-3.8a1.342,1.342,0,0,0-1.9,0L58.309,47.5a13.245,13.245,0,0,0-2.172-.9v-1.52A1.342,1.342,0,0,0,54.8,43.739H49.429a1.342,1.342,0,0,0-1.342,1.342V46.6a13.245,13.245,0,0,0-2.172.9l-1.077-1.077a1.342,1.342,0,0,0-1.9,0l-3.8,3.8a1.341,1.341,0,0,0,0,1.9L40.222,53.2a13.254,13.254,0,0,0-.9,2.173H37.8a1.342,1.342,0,0,0-1.342,1.341v5.367A1.342,1.342,0,0,0,37.8,63.418h1.52a13.246,13.246,0,0,0,.9,2.172l-1.077,1.077a1.341,1.341,0,0,0,0,1.9l3.8,3.8a1.342,1.342,0,0,0,1.9,0l1.077-1.077a13.319,13.319,0,0,0,2.172.9v1.52a1.341,1.341,0,0,0,1.342,1.341H54.8a1.341,1.341,0,0,0,1.342-1.341v-1.52a13.393,13.393,0,0,0,2.172-.9l1.077,1.077a1.343,1.343,0,0,0,1.9,0l3.8-3.8a1.341,1.341,0,0,0,0-1.9Z" transform="translate(-6.029 -7.234)" fill="none" stroke="#385e96" stroke-linecap="round" stroke-linejoin="round" stroke-width="2.5"/>
    <circle id="Ellipse_12" data-name="Ellipse 12" cx="7.767" cy="7.767" r="7.767" transform="translate(38.316 44.392)" fill="none" stroke="#385e96" stroke-linecap="round" stroke-linejoin="round" stroke-width="2.5"/>
  </g>
</svg>
