<svg xmlns="http://www.w3.org/2000/svg" width="92.259" height="92.259" viewBox="0 0 92.259 92.259"><g id="UI" transform="translate(0.144 28.477) rotate(-24)"><path id="Path_184" data-name="Path 184" d="M64,69.128H5.878A5.128,5.128,0,0,1,.75,64V5.878A5.128,5.128,0,0,1,5.878.75H64a5.128,5.128,0,0,1,5.128,5.128V64A5.128,5.128,0,0,1,64,69.128" transform="translate(-0.109 -0.109)" fill="#f9f9ff"></path><rect id="Rectangle_59" data-name="Rectangle 59" width="68.378" height="68.378" rx="6" transform="translate(0.641 0.641)" fill="none" stroke="#fff" stroke-linecap="round" stroke-linejoin="round" stroke-width="1.5"></rect><path id="Path_185" data-name="Path 185" d="M59.314,44.28H13.47a2.72,2.72,0,0,1-2.72-2.72v-20.2a2.72,2.72,0,0,1,2.72-2.72H59.314a2.72,2.72,0,0,1,2.72,2.72v20.2a2.72,2.72,0,0,1-2.72,2.72" transform="translate(-1.562 -2.708)" fill="#f8fcff"></path><rect id="Rectangle_60" data-name="Rectangle 60" width="51.284" height="25.642" rx="3.182" transform="translate(9.188 15.93)" fill="none" stroke="#4c241d" stroke-linecap="round" stroke-linejoin="round" stroke-width="1.5"></rect><path id="Path_186" data-name="Path 186" d="M67.081,66.679H53.4a1,1,0,0,1-1-1V56.3a1,1,0,0,1,1-1H67.081a1,1,0,0,1,1,1v9.378a1,1,0,0,1-1,1" transform="translate(-7.611 -8.033)" fill="#fde6ce"></path><path id="Rectangle_61" data-name="Rectangle 61" d="M1.173,0H14.517A1.173,1.173,0,0,1,15.69,1.173V10.21a1.172,1.172,0,0,1-1.172,1.172H1.173A1.173,1.173,0,0,1,0,10.209V1.173A1.173,1.173,0,0,1,1.173,0Z" transform="translate(44.782 47.263)" fill="none" stroke="#4c241d" stroke-linecap="round" stroke-linejoin="round" stroke-width="1.5"></path><path id="Path_187" data-name="Path 187" d="M15.388,11.18a2.319,2.319,0,1,1-2.319-2.319,2.319,2.319,0,0,1,2.319,2.319" transform="translate(-1.562 -1.287)" fill="#db2323"></path><circle id="Ellipse_16" data-name="Ellipse 16" cx="2.319" cy="2.319" r="2.319" transform="translate(9.188 7.573)" fill="none" stroke="#4c241d" stroke-linecap="round" stroke-linejoin="round" stroke-width="1.5"></circle><path id="Path_188" data-name="Path 188" d="M23.883,11.18a2.319,2.319,0,1,1-2.319-2.319,2.319,2.319,0,0,1,2.319,2.319" transform="translate(-2.796 -1.287)" fill="#f8db46"></path><circle id="Ellipse_17" data-name="Ellipse 17" cx="2.319" cy="2.319" r="2.319" transform="translate(16.449 7.573)" fill="none" stroke="#4c241d" stroke-linecap="round" stroke-linejoin="round" stroke-width="1.5"></circle><path id="Path_189" data-name="Path 189" d="M32.378,11.18a2.319,2.319,0,1,1-2.319-2.319,2.319,2.319,0,0,1,2.319,2.319" transform="translate(-4.03 -1.287)" fill="#41cc4f"></path><circle id="Ellipse_18" data-name="Ellipse 18" cx="2.319" cy="2.319" r="2.319" transform="translate(23.71 7.573)" fill="none" stroke="#4c241d" stroke-linecap="round" stroke-linejoin="round" stroke-width="1.5"></circle><line id="Line_105" data-name="Line 105" x2="32.547" transform="translate(9.188 47.69)" fill="none" stroke="#4c241d" stroke-linecap="round" stroke-linejoin="round" stroke-width="1.5"></line><line id="Line_106" data-name="Line 106" x2="32.547" transform="translate(9.188 52.954)" fill="none" stroke="#4c241d" stroke-linecap="round" stroke-linejoin="round" stroke-width="1.5"></line><line id="Line_107" data-name="Line 107" x2="32.547" transform="translate(9.188 58.218)" fill="none" stroke="#4c241d" stroke-linecap="round" stroke-linejoin="round" stroke-width="1.5"></line></g></svg>