<svg xmlns="http://www.w3.org/2000/svg" width="22.397" height="19.798" viewBox="0 0 22.397 19.798">
  <g id="UXtool" transform="translate(0)">
    <rect id="Rectangle_94" data-name="Rectangle 94" width="20.797" height="18.198" rx="1.136" transform="translate(0.8 0.8)" fill="none" stroke="#8c8c8c" stroke-linecap="round" stroke-linejoin="round" stroke-width="1.6"/>
    <line id="Line_178" data-name="Line 178" x2="8.717" transform="translate(12.88 4.108)" fill="none" stroke="#8c8c8c" stroke-linecap="round" stroke-linejoin="round" stroke-width="1.6"/>
    <path id="Rectangle_95" data-name="Rectangle 95" d="M.658,0H4.939A.657.657,0,0,1,5.6.657V2.686a.657.657,0,0,1-.657.657H.658A.658.658,0,0,1,0,2.685V.658A.658.658,0,0,1,.658,0Z" transform="translate(2.805 11.025)" fill="none" stroke="#8c8c8c" stroke-linecap="round" stroke-linejoin="round" stroke-width="1.6"/>
    <rect id="Rectangle_96" data-name="Rectangle 96" width="6.077" height="2.18" rx="0.626" transform="translate(13.162 8.591)" fill="none" stroke="#8c8c8c" stroke-linecap="round" stroke-linejoin="round" stroke-width="1.6"/>
    <rect id="Rectangle_97" data-name="Rectangle 97" width="6.077" height="2.18" rx="0.626" transform="translate(13.162 14.621)" fill="none" stroke="#8c8c8c" stroke-linecap="round" stroke-linejoin="round" stroke-width="1.6"/>
    <path id="Path_271" data-name="Path 271" d="M13.741,10.194h-1.8a.541.541,0,0,0-.541.541v4.95a.54.54,0,0,0,.541.54h1.8" transform="translate(-0.579 -0.513)" fill="none" stroke="#8c8c8c" stroke-linecap="round" stroke-linejoin="round" stroke-width="1.6"/>
    <line id="Line_179" data-name="Line 179" x1="2.417" transform="translate(8.401 12.696)" fill="none" stroke="#8c8c8c" stroke-linecap="round" stroke-linejoin="round" stroke-width="1.6"/>
    <path id="Path_272" data-name="Path 272" d="M5.73,3.852V6.187a1.309,1.309,0,1,1-2.618,0V3.852" transform="translate(-0.126 -0.167)" fill="none" stroke="#8c8c8c" stroke-linecap="round" stroke-linejoin="round" stroke-width="1.6"/>
    <line id="Line_180" data-name="Line 180" x2="2.899" y2="3.711" transform="translate(7.651 3.685)" fill="none" stroke="#8c8c8c" stroke-linecap="round" stroke-linejoin="round" stroke-width="1.6"/>
    <line id="Line_181" data-name="Line 181" x1="2.899" y2="3.711" transform="translate(7.651 3.685)" fill="none" stroke="#8c8c8c" stroke-linecap="round" stroke-linejoin="round" stroke-width="1.6"/>
  </g>
</svg>
