<svg xmlns="http://www.w3.org/2000/svg" width="71.523" height="62.821" viewBox="0 0 71.523 62.821">
  <g id="Website_Builder" data-name="Website Builder" transform="translate(0.172 0.171)">
    <path id="Path_48" data-name="Path 48" d="M53.3,48.724H4.227A2.977,2.977,0,0,1,1.25,45.748V4.227A2.977,2.977,0,0,1,4.227,1.25H67.3a2.975,2.975,0,0,1,2.975,2.976V45.749A2.975,2.975,0,0,1,67.3,48.724Z" transform="translate(-0.172 -0.171)" fill="none" stroke="#367a3e" stroke-linecap="round" stroke-linejoin="round" stroke-width="2.5"/>
    <path id="Path_49" data-name="Path 49" d="M25.677,68.708l5.851-12.434H46.7l5.851,12.434" transform="translate(-3.523 -7.721)" fill="none" stroke="#367a3e" stroke-linecap="round" stroke-linejoin="round" stroke-width="2.5"/>
    <line id="Line_49" data-name="Line 49" x2="48.316" transform="translate(11.432 60.986)" fill="none" stroke="#367a3e" stroke-linecap="round" stroke-linejoin="round" stroke-width="2.5"/>
    <line id="Line_50" data-name="Line 50" x2="69.023" transform="translate(1.078 11.335)" fill="none" stroke="#367a3e" stroke-linecap="round" stroke-linejoin="round" stroke-width="2.5"/>
    <line id="Line_51" data-name="Line 51" x2="26.554" transform="translate(8.599 18.828)" fill="none" stroke="#367a3e" stroke-linecap="round" stroke-linejoin="round" stroke-width="2.5"/>
    <line id="Line_52" data-name="Line 52" x2="26.554" transform="translate(8.599 40.066)" fill="none" stroke="#367a3e" stroke-linecap="round" stroke-linejoin="round" stroke-width="2.5"/>
    <line id="Line_53" data-name="Line 53" x2="26.554" transform="translate(8.599 33.163)" fill="none" stroke="#367a3e" stroke-linecap="round" stroke-linejoin="round" stroke-width="2.5"/>
    <line id="Line_54" data-name="Line 54" x2="26.554" transform="translate(8.599 25.995)" fill="none" stroke="#367a3e" stroke-linecap="round" stroke-linejoin="round" stroke-width="2.5"/>
    <path id="Path_50" data-name="Path 50" d="M52.65,6.786A1.806,1.806,0,1,1,50.844,4.98,1.806,1.806,0,0,1,52.65,6.786" transform="translate(-6.728 -0.683)" fill="#367a3e"/>
    <path id="Path_51" data-name="Path 51" d="M61.277,6.786A1.806,1.806,0,1,1,59.471,4.98a1.806,1.806,0,0,1,1.806,1.806" transform="translate(-7.912 -0.683)" fill="#367a3e"/>
    <path id="Path_52" data-name="Path 52" d="M69.9,6.786A1.806,1.806,0,1,1,68.1,4.98,1.806,1.806,0,0,1,69.9,6.786" transform="translate(-9.096 -0.683)" fill="#367a3e"/>
    <rect id="Rectangle_27" data-name="Rectangle 27" width="21.238" height="21.238" transform="translate(40.94 18.829)" fill="none" stroke="#367a3e" stroke-linecap="round" stroke-linejoin="round" stroke-width="2.5"/>
  </g>
</svg>
