<svg xmlns="http://www.w3.org/2000/svg" width="23.6" height="20.959" viewBox="0 0 23.6 20.959">
  <g id="Website" transform="translate(0)">
    <path id="Path_298" data-name="Path 298" d="M17.389,15.932H1.748A.948.948,0,0,1,.8,14.983V1.749A.948.948,0,0,1,1.748.8h20.1a.949.949,0,0,1,.949.949V14.984a.949.949,0,0,1-.949.948Z" fill="none" stroke="#8c8c8c" stroke-linecap="round" stroke-linejoin="round" stroke-width="1.6"/>
    <path id="Path_299" data-name="Path 299" d="M7.517,19.895l1.865-3.963h4.835l1.865,3.963" fill="none" stroke="#8c8c8c" stroke-linecap="round" stroke-linejoin="round" stroke-width="1.6"/>
    <line id="Line_186" data-name="Line 186" x2="15.4" transform="translate(4.1 19.895)" fill="none" stroke="#8c8c8c" stroke-linecap="round" stroke-linejoin="round" stroke-width="1.6"/>
    <line id="Line_187" data-name="Line 187" x2="22" transform="translate(0.8 4.372)" fill="none" stroke="#8c8c8c" stroke-linecap="round" stroke-linejoin="round" stroke-width="1.6"/>
    <line id="Line_188" data-name="Line 188" x2="7.742" transform="translate(3.197 8.336)" fill="none" stroke="#8c8c8c" stroke-linecap="round" stroke-linejoin="round" stroke-width="1.6"/>
    <line id="Line_189" data-name="Line 189" x2="7.742" transform="translate(3.197 11.93)" fill="none" stroke="#8c8c8c" stroke-linecap="round" stroke-linejoin="round" stroke-width="1.6"/>
    <path id="Path_300" data-name="Path 300" d="M15.093,2.563a.576.576,0,1,1-.576-.576.576.576,0,0,1,.576.576" fill="#8c8c8c"/>
    <path id="Path_301" data-name="Path 301" d="M17.465,2.563a.576.576,0,1,1-.576-.576.576.576,0,0,1,.576.576" fill="#8c8c8c"/>
    <path id="Path_302" data-name="Path 302" d="M19.838,2.563a.575.575,0,1,1-.576-.576.576.576,0,0,1,.576.576" fill="#8c8c8c"/>
    <rect id="Rectangle_100" data-name="Rectangle 100" width="6.769" height="6.769" transform="translate(13.505 6.749)" fill="none" stroke="#8c8c8c" stroke-linecap="round" stroke-linejoin="round" stroke-width="1.6"/>
  </g>
</svg>
